<?xml version="1.0" encoding="utf-8"?><svg width="40" height="45" xmlns="http://www.w3.org/2000/svg" viewBox="0 0 40 45"><path d="M39.969 7.51c0-.384-.03-.77-.083-1.15-.214-1.5-.894-2.772-1.977-3.815-1.293-1.238-2.852-1.842-4.64-1.842-8.755 0-17.51-.005-26.266.01-.544 0-1.098.073-1.632.19-1.458.321-2.643 1.11-3.571 2.27C.794 4.432.352 5.889.352 7.492c.005 10.111 0 11.656.005 21.768 0 .414.01.833.029 1.247a6.182 6.182 0 001.122 3.304c1.297 1.847 3.095 2.797 5.35 2.865.388.01.777 0 1.18 0-.175-1.174-.087-2.329 0-3.503-.442 0-.86.01-1.273-.005a2.886 2.886 0 01-1.642-.56c-.918-.659-1.326-1.57-1.326-2.695.005-10.355 0-12.144 0-22.499 0-.102 0-.205.005-.307a2.92 2.92 0 01.743-1.852c.65-.736 1.482-1.062 2.453-1.062h26.29c.083 0 .165 0 .248.005.87.063 1.608.41 2.172 1.077.515.604.729 1.32.729 2.115-.01 10.394-.01 12.216-.01 22.6 0 .098 0 .195-.005.288-.068 1.584-1.36 2.885-2.935 2.948-.408.015-.816 0-1.21 0 .02.59.05 1.16.059 1.725.01.566 0 1.136 0 1.72.282 0 .593-.004.904 0a6.64 6.64 0 002.657-.497 6.515 6.515 0 003.027-2.529c.734-1.125 1.045-2.378 1.045-3.718V7.51zM20.15 25.862c-5.014-.01-9.105 4.079-9.11 9.113-.005 5.029 4.076 9.127 9.095 9.127 5.004 0 9.1-4.133 9.095-9.18-.005-5.005-4.052-9.05-9.08-9.06zm4.654 7.612c-.068.224-.2.453-.36.619-1.462 1.486-2.939 2.962-4.411 4.434-.743.74-1.662.736-2.41-.005a407.861 407.861 0 01-2.045-2.051c-.515-.517-.656-1.214-.384-1.837a1.564 1.564 0 012.08-.78c.199.093.383.234.539.385.34.326.66.672.996 1.023l.18-.17c1.02-1.019 2.045-2.027 3.05-3.056.56-.575 1.434-.619 1.988-.287.675.4.986 1.043.777 1.725zm4.32-23.81H11.292c-.165 0-.33.01-.495.03-1.21.14-1.832 1.437-1.331 2.485.34.706.937.989 1.695.989h17.85c.103 0 .205 0 .307-.01 1.438-.141 1.91-1.627 1.414-2.577-.33-.644-.9-.917-1.609-.917zm.024 8.582h-17.85c-.151 0-.307.01-.457.024-1.22.112-1.88 1.418-1.37 2.485.325.683.898.985 1.642.985h17.218c.306 0 .613.01.919-.005 1.117-.049 1.87-1.024 1.632-2.188-.17-.804-.865-1.301-1.734-1.301z"/></svg>