<?xml version="1.0" encoding="utf-8"?><svg width="45" height="34" xmlns="http://www.w3.org/2000/svg" viewBox="0 0 45 34"><path d="M44.563 16.332V6.5c0-.363-.022-.691-.07-1.003-.193-1.318-.792-2.458-1.783-3.396C41.551 1.004 40.112.447 38.432.447H6.264a8.34 8.34 0 00-1.042.065c-1.37.172-2.56.769-3.538 1.776C.581 3.424.021 4.833.021 6.47V27.926c0 .847.151 1.638.453 2.36a5.863 5.863 0 002.253 2.696c1 .648 2.163.98 3.455.98h.01c3.946-.004 7.957-.004 11.834-.004H38.42c.883 0 1.667-.142 2.4-.44a5.987 5.987 0 002.748-2.221c.66-.977.996-2.122.996-3.41V16.332zm-4.158 13.435a2.484 2.484 0 01-1.728.786c-.082.005-.168.005-.25.005h-7.531c-8.113 0-16.497 0-24.748.004-.754 0-1.366-.225-1.87-.692-.491-.453-.75-1.006-.788-1.69-.005-.077-.005-.159-.005-.241v-5.501c0-5.229 0-10.635-.004-15.954 0-.74.228-1.34.694-1.833.452-.475 1-.734 1.676-.786a3.46 3.46 0 01.22-.009h20.232c3.977 0 8.087 0 12.129-.004h.004c.745 0 1.353.225 1.861.683.474.432.737.972.802 1.646.008.07.004.151.004.238v5.816c0 5.147 0 10.47.004 15.708-.004.743-.233 1.34-.702 1.824zm-6.618-9.749l-2.779-2.813 1.702-1.72 6.54-6.616c.1-.1.181-.194.254-.29.293-.38.401-.881.285-1.374a1.67 1.67 0 00-.858-1.119c-.74-.376-1.516-.238-2.128.385L33.71 9.599c-3.473 3.514-7.066 7.148-10.6 10.717-.254.26-.53.497-.818.752-.013.013-.026.022-.043.035L7.84 6.518c-.09-.09-.19-.186-.301-.276a1.731 1.731 0 00-1.595-.281c-.547.173-.965.6-1.12 1.14-.125.441-.142 1.103.5 1.746l2.689 2.719c1.857 1.875 3.713 3.755 5.57 5.63l-2.58 2.615c-1.72 1.737-3.434 3.474-5.149 5.215l-.164.165c-.176.177-.357.354-.525.553a1.664 1.664 0 00.043 2.22 1.738 1.738 0 002.223.273c.155-.1.28-.22.383-.324 1.771-1.793 3.542-3.582 5.313-5.376l2.83-2.865c.246.216.479.424.698.644.88.882 1.771 1.785 2.633 2.658.569.579 1.142 1.158 1.715 1.733.366.367.827.57 1.297.57.474 0 .934-.207 1.305-.58l.259-.258.193.22-.125-.29 1.556-1.577c1.038-1.05 2.077-2.1 3.11-3.154l5.046 5.099c.301.302.603.61.905.912.745.756 1.516 1.534 2.279 2.303a1.849 1.849 0 001.534.553c.53-.07.99-.389 1.266-.873.384-.683.259-1.452-.344-2.061-1.836-1.845-3.667-3.7-5.498-5.553z"/></svg>