<?xml version="1.0" encoding="utf-8"?><svg width="44" height="49" xmlns="http://www.w3.org/2000/svg" viewBox="0 0 44 49"><path d="M40.682 2.735C38.874 1.079 36.73.225 34.28.208 30.235.18 26.19.202 22.15.202c-3.948 0-7.901.006-11.849 0-2.362-.01-4.48.681-6.299 2.19C1.7 4.303.423 6.776.406 9.782.363 16.227.385 22.675.401 29.123c0 .692.076 1.395.217 2.07.456 2.206 1.58 4.03 3.296 5.474a9.394 9.394 0 004.263 2.058c.234.05.315.126.315.382-.01 2.587-.01 5.174 0 7.76 0 .3.054.627.174.9.467 1.067 1.661 1.16 2.438.587 1.347-.99 2.704-1.966 4.045-2.968 2.34-1.748 4.828-3.235 7.543-4.313 2.96-1.177 6.022-1.901 9.199-2.113 1.026-.071 2.058-.05 3.079-.137 2.242-.185 4.208-1.056 5.843-2.608 2.074-1.972 3.1-4.412 3.106-7.271.01-6.274.01-12.549 0-18.823-.006-2.925-1.075-5.408-3.237-7.385zM40.7 28.98c0 2.042-.744 3.752-2.286 5.092-1.108.964-2.411 1.482-3.883 1.563-1.385.077-2.775.115-4.154.245-2.216.207-4.377.703-6.495 1.373-3.692 1.17-7.08 2.93-10.203 5.223-.554.403-1.113.806-1.667 1.204-.065.049-.136.087-.245.158v-.316-6.138c0-.855-.407-1.427-1.183-1.667a2.52 2.52 0 00-.609-.082c-2.438-.125-4.262-1.274-5.495-3.36-.592-1.002-.82-2.124-.82-3.284 0-6.28-.005-12.565 0-18.845 0-1.764.56-3.327 1.787-4.613C6.673 4.25 8.177 3.546 9.964 3.497c.803-.021 1.612-.01 2.416-.01 7.206 0 14.412.005 21.618-.006 1.33-.005 2.568.305 3.681 1.03 1.597 1.034 2.59 2.5 2.916 4.39.087.495.109 1.007.109 1.513 0 6.193-.005 12.38-.005 18.567zm-14.96-17.2c-1.32-1.073-2.84-1.427-4.508-1.187-1.336.196-2.47.768-3.34 1.83-.77.937-1.074 2.042-1.074 3.23 0 .67.342 1.187.96 1.46.527.239 1.054.184 1.537-.148.51-.348.7-.86.723-1.46.021-.593.277-1.067.809-1.34.31-.152.651-.282.988-.32.83-.093 1.591.087 2.129.795.31.408.293.898.287 1.383-.005.703-.325 1.236-.912 1.601-.472.289-.966.55-1.455.817-.625.338-1.092.817-1.255 1.52-.097.414-.092.85-.13 1.274.017 0 .033 0 .044.006 0 .294-.017.582.005.877.049.724.668 1.34 1.423 1.432.706.087 1.477-.381 1.656-1.068.098-.364.087-.762.109-1.143.005-.137.043-.218.168-.278.255-.12.51-.245.76-.381 1.428-.757 2.335-1.918 2.683-3.513.152-.703.163-1.416.092-2.124-.13-1.313-.673-2.424-1.7-3.263zM22.17 25.397c-1.173-.005-1.982.823-1.993 2.043-.011 1.181.793 2.042 1.933 2.053 1.173.01 1.987-.812 2.004-2.032.01-1.192-.804-2.058-1.944-2.064z"/></svg>