<?xml version="1.0" encoding="utf-8"?><svg width="45" height="36" xmlns="http://www.w3.org/2000/svg" viewBox="0 0 45 36"><path d="M37.946 16.391c-.102-1.021-1.074-1.678-2.036-1.373-.685.214-1.113.815-1.113 1.583-.004 1.408 0 2.815 0 4.223v9.883c0 .395-.094.764-.342 1.077-.35.438-.813.613-1.37.61-1.462-.01-2.93-.005-4.393-.005-.064 0-.133-.004-.218-.009v-.27c0-2.489.004-4.974-.005-7.463 0-.446-.034-.892-.111-1.33a6.107 6.107 0 00-1.579-3.163c-1.078-1.158-2.404-1.828-3.97-1.995a6.124 6.124 0 00-4.129 1.009 6.25 6.25 0 00-2.417 3.003c-.308.79-.433 1.614-.433 2.455v7.75c-.064.004-.094.013-.124.013-1.518 0-3.042.008-4.56-.004a1.868 1.868 0 01-.732-.16c-.638-.3-.903-.849-.907-1.536V16.697c0-.15 0-.3-.03-.447-.116-.592-.458-1.025-1.031-1.205-1.121-.352-2.097.386-2.097 1.575-.004 4.707 0 9.415 0 14.126 0 .67.099 1.33.385 1.936.877 1.862 2.354 2.87 4.412 2.88 7.341.02 14.688.008 22.03.008 1.18 0 2.237-.37 3.132-1.15 1.125-.983 1.66-2.236 1.66-3.73-.005-4.673 0-9.341 0-14.015-.013-.094-.013-.189-.022-.283zm-12.639 15.99h-6.31c-.005-.065-.009-.13-.009-.194 0-2.549-.004-5.098 0-7.651.004-1.566.954-2.794 2.443-3.163 1.763-.438 3.598.816 3.834 2.614.025.188.038.382.038.575.004 2.536 0 5.076 0 7.612v.206h.004zm18.937-19.337c-.102-.562-.47-.918-.958-1.18C36.539 8.224 29.79 4.582 23.048.93c-.616-.335-1.198-.33-1.81.004-4.436 2.403-8.877 4.798-13.314 7.196L.94 11.902c-.573.31-.898.777-.92 1.314 0 .78.39 1.373.993 1.609.505.197.993.12 1.463-.137C8.981 11.172 15.48 7.657 21.983 4.14c.116-.065.201-.073.32-.009 4.947 2.678 9.893 5.347 14.839 8.02 1.579.854 3.153 1.708 4.732 2.558.612.33 1.215.318 1.776-.103.517-.386.71-.927.594-1.562z"/></svg>