<?xml version="1.0" encoding="utf-8"?><svg width="39" height="50" xmlns="http://www.w3.org/2000/svg" viewBox="0 0 39 50"><path d="M37.68 14.572c-1.2-4.068-3.492-7.385-6.864-9.94C28.15 2.617 25.147 1.408 21.84.983a18.922 18.922 0 00-5.734.142 18.696 18.696 0 00-6.842 2.663 18.768 18.768 0 00-6.696 7.315C.874 14.37.195 17.85.494 21.516c.174 2.146.717 4.194 1.585 6.16.05.109.071.234.071.354.005 2.396.005 4.798.005 7.2v6.966c0 .97.218 1.89.728 2.712 1.08 1.743 2.66 2.587 4.703 2.538.874-.022 1.678-.305 2.438-.719.505-.272 1.02-.294 1.553-.081 1.89.762 3.78 1.514 5.67 2.27 1.427.573 2.855.556 4.278-.01 1.895-.757 3.79-1.525 5.686-2.282.179-.071.369-.13.559-.158.38-.06.733.027 1.07.207.874.474 1.802.762 2.807.724 1.499-.049 2.759-.632 3.752-1.748.89-.997 1.309-2.19 1.309-3.535-.005-4.684 0-9.362 0-14.046 0-.152.033-.31.092-.447a19.126 19.126 0 001.608-6.71 18.54 18.54 0 00-.728-6.339zM33.249 42.19c0 .997-.646 1.716-1.624 1.803-.347.033-.678-.065-.988-.234-.614-.338-1.254-.583-1.95-.692-.977-.158-1.91-.01-2.818.354-1.868.746-3.73 1.498-5.587 2.255a2.13 2.13 0 01-1.695 0c-1.862-.762-3.725-1.509-5.587-2.255-1.532-.615-3.036-.539-4.513.202-.304.152-.63.3-.956.348-.944.148-1.84-.61-1.906-1.568-.005-.093-.005-.18-.005-.273V32.986c3.823 3.889 8.411 5.942 13.82 5.942 5.408 0 9.997-2.053 13.803-5.926.006.071.017.126.017.18-.011 3.001-.011 6.008-.011 9.008zm-13.83-6.72c-8.515-.055-15.537-7.01-15.428-15.795.103-8.474 6.956-15.337 15.476-15.38 8.737.016 15.628 7.031 15.607 15.603A15.544 15.544 0 0119.418 35.47zm9.133-20.206c-.63-.512-1.363-.73-2.167-.736-.907 0-1.814-.005-2.726 0-.141 0-.206-.038-.244-.18-.13-.44-.266-.882-.413-1.317-.228-.676-.413-1.373-.722-2.01-.505-1.046-1.38-1.64-2.536-1.76-1.02-.103-1.9.23-2.623.965-.412.42-.684.926-.863 1.487-.283.882-.56 1.77-.826 2.658-.038.13-.097.168-.228.168-.912-.01-1.83-.016-2.742-.016-1.499 0-2.748.871-3.204 2.238-.478 1.422-.054 2.903 1.108 3.846.815.659 1.63 1.307 2.454 1.955.104.081.125.152.082.278-.299.947-.587 1.895-.88 2.843a3.483 3.483 0 00.217 2.668c.657 1.324 2.113 2.043 3.53 1.765.603-.12 1.102-.436 1.58-.8.684-.524 1.38-1.03 2.08-1.547.07.049.136.092.196.141.744.55 1.487 1.111 2.231 1.661 1.113.812 2.656.8 3.763-.027a3.48 3.48 0 001.228-3.845 277.91 277.91 0 00-.913-2.794c-.048-.147-.038-.24.098-.343.592-.458 1.178-.92 1.76-1.389.494-.398 1.02-.752 1.395-1.29 1.01-1.444.739-3.503-.635-4.62zm-3.34 3.545l-1.417 1.128a3.479 3.479 0 00-1.157 3.834c.283.882.57 1.764.875 2.696-.087-.06-.136-.087-.18-.125a556.01 556.01 0 00-1.878-1.455c-1.228-.942-2.824-.942-4.057 0-.651.502-1.303 1.008-1.993 1.542.033-.104.05-.17.065-.234.283-.959.609-1.907.842-2.876.234-.964-.016-1.868-.586-2.68-.386-.55-.94-.91-1.445-1.323-.478-.392-.961-.768-1.444-1.155-.05-.038-.093-.082-.19-.163h.277c.928-.006 1.857.016 2.78-.022 1.309-.054 2.454-.931 2.878-2.173.266-.779.505-1.569.755-2.358.021-.06.043-.12.06-.18.016 0 .027 0 .043-.006l.326 1.014c.14.452.282.904.429 1.356.483 1.486 1.683 2.363 3.241 2.369.831.005 1.662 0 2.488 0h.206c.005.016.01.032.016.043-.304.262-.619.512-.934.768z"/></svg>