<?xml version="1.0" encoding="utf-8"?><svg width="44" height="39" xmlns="http://www.w3.org/2000/svg" viewBox="0 0 44 39"><path d="M43.72 5.801a5.39 5.39 0 00-.06-.871 4.564 4.564 0 00-1.47-2.714c-.992-.902-2.187-1.322-3.548-1.322h-20.51c-.346 0-.689.004-1.035.025a4.804 4.804 0 00-3.228 1.473c-.92.936-1.353 2.065-1.353 3.353v9.411H5.92c-.659 0-1.301.09-1.913.336-1.366.536-2.307 1.468-2.83 2.795-.252.64-.304 1.305-.304 1.98.005 3.503 0 7.006.009 10.51 0 .455.021.918.09 1.37.312 2.039 1.305 3.722 2.966 5.023 1.537 1.202 3.314 1.764 5.291 1.76 6.323-.004 9.517 0 15.84 0H38.68c1.237 0 2.345-.356 3.287-1.133 1.199-.984 1.76-2.255 1.755-3.774-.004-9.403 0-18.81-.004-28.222zM11.317 34.104c-.792.88-1.773 1.408-2.916 1.58-1.845-.253-3.142-1.254-3.891-2.937-.261-.588-.351-1.21-.351-1.846-.004-3.624.004-7.243-.004-10.867-.005-.992.745-1.709 1.746-1.709 3.194.005 3.254 0 6.447 0h.176V30.91c-.005 1.206-.386 2.284-1.207 3.194zm28.463 1.331c-.253.18-.535.292-.848.318-.09.008-.184.008-.278.008H14.139c.18-.266.35-.506.505-.75.8-1.28 1.164-2.676 1.164-4.166V5.81c0-.58.18-1.078.677-1.43.325-.232.697-.31 1.095-.31h21.101c.719 0 1.292.276 1.592.924.116.245.158.54.163.811.008 4.783.008 9.566.008 14.35V34.04c0 .566-.18 1.047-.663 1.395zM22.45 19.914h5.142c.45 0 .9.009 1.349 0 1.121-.022 2.02-.472 2.68-1.348.432-.571.603-1.228.603-1.932v-5.96c0-.184-.008-.369-.021-.554-.124-1.571-1.494-2.855-3.13-2.876-2.256-.026-4.512-.013-6.768-.005-.265 0-.539.048-.8.112-1.344.335-2.363 1.529-2.402 2.864-.034 1.116-.008 2.237-.008 3.353h-.013v3.07c0 .696.171 1.348.6 1.915.684.906 1.609 1.361 2.769 1.361zm-.063-9.497h6.54v6.316h-6.54v-6.316zm11.455 12.67h-7.932c-1.725 0-3.45-.004-5.176 0-1.091.004-1.866.979-1.588 1.992.197.717.844 1.177 1.674 1.177H33.89c1.01-.04 1.725-.83 1.61-1.787-.099-.798-.792-1.378-1.657-1.382zm-6.64 6.333h-6.25c-.128 0-.256.004-.385.017-.963.082-1.648.988-1.438 1.898.175.755.81 1.25 1.64 1.254 1.083.008 2.17.004 3.253.004v-.005c1.122 0 2.243.018 3.365-.004 1.126-.026 1.866-1.172 1.434-2.177-.27-.622-.87-.987-1.618-.987z"/></svg>