<?xml version="1.0" encoding="utf-8"?><svg width="40" height="32" xmlns="http://www.w3.org/2000/svg" viewBox="0 0 40 32"><path fill-rule="evenodd" clip-rule="evenodd" d="M34.112 1.34l-4.735 27.427c-.063.345-.257.614-.592.804a1.151 1.151 0 01-.575.144c-.134 0-.283-.029-.443-.09l-8.374-3.305-4.474 5.267c-.223.273-.521.41-.905.41-.16 0-.295-.026-.407-.072a1.14 1.14 0 01-.563-.42 1.09 1.09 0 01-.212-.651v-6.23L28.807 5.712 9.044 22.232 1.74 19.338c-.454-.168-.7-.495-.738-.98-.026-.478.172-.827.593-1.053L32.356.162c.183-.108.38-.162.59-.162.245 0 .469.065.663.198.41.283.578.664.503 1.142z"/></svg>