<?xml version="1.0" encoding="utf-8"?><svg width="38" height="32" xmlns="http://www.w3.org/2000/svg" viewBox="0 0 38 32"><path d="M16.131 11.856v5.605c-.046-.011-.086-.018-.125-.03a4.638 4.638 0 00-1.706-.154 4.587 4.587 0 00-2.538 1.06c-.871.73-1.414 1.65-1.61 2.763-.343 1.976.639 3.934 2.43 4.868.73.38 1.51.557 2.332.532 2.13-.065 3.983-1.613 4.405-3.686.064-.317.096-.633.096-.956v-7.027c0-2.749 0-5.497.004-8.245 0-2.138 0-4.276.003-6.413V.022c.104-.022 5.365-.033 5.561-.007.043 2.09.779 3.905 2.274 5.389 1.5 1.483 3.33 2.216 5.454 2.256v5.5c-2.827-.021-5.393-.837-7.72-2.457v.172c0 3.668.007 7.337-.004 11.001-.007 2.414-.785 4.566-2.338 6.427-1.503 1.807-3.427 2.96-5.736 3.467-.928.205-1.87.27-2.82.205-4.409-.277-8.142-3.341-9.249-7.573a9.92 9.92 0 01-.314-2.936c.19-4.419 3.238-8.202 7.546-9.366a10.32 10.32 0 013.18-.337c.272.014.543.05.81.075.019.004.036.01.065.018z"/></svg>