<?xml version="1.0" encoding="utf-8"?><svg width="37" height="32" xmlns="http://www.w3.org/2000/svg" viewBox="0 0 37 32"><path fill-rule="evenodd" clip-rule="evenodd" d="M32.722 5.058c1.57-.998 2.777-2.583 3.344-4.469a14.62 14.62 0 01-4.833 1.962C29.848.98 27.871 0 25.68 0c-4.201 0-7.607 3.618-7.607 8.076 0 .633.065 1.25.193 1.84-6.322-.338-11.926-3.55-15.684-8.44A8.46 8.46 0 001.553 5.54c0 2.802 1.342 5.274 3.384 6.725a7.336 7.336 0 01-3.449-1.01v.101c0 3.917 2.62 7.182 6.108 7.922-.64.19-1.31.284-2.006.284-.49 0-.968-.047-1.432-.144.968 3.209 3.777 5.547 7.107 5.609-2.605 2.166-5.886 3.456-9.452 3.456-.614 0-1.22-.036-1.817-.112C3.366 30.66 7.364 32 11.661 32c14 0 21.65-12.308 21.65-22.982 0-.352-.004-.701-.018-1.046A15.944 15.944 0 0037.09 3.79a14.564 14.564 0 01-4.37 1.268z"/></svg>