<?xml version="1.0" encoding="utf-8"?><svg width="37" height="32" xmlns="http://www.w3.org/2000/svg" viewBox="0 0 37 32"><path d="M36.341 24.024c-.1-.162-.703-1.459-3.616-4.124-3.052-2.788-2.641-2.34 1.032-7.164 2.238-2.939 3.13-4.732 2.852-5.5-.264-.733-1.91-.54-1.91-.54l-5.472.033s-.407-.054-.707.122c-.292.172-.485.578-.485.578s-.864 2.275-2.02 4.207c-2.438 4.082-3.413 4.297-3.813 4.042-.928-.593-.696-2.375-.696-3.64 0-3.955.61-5.604-1.185-6.028-.596-.143-1.031-.233-2.556-.251-1.952-.018-3.605.007-4.543.46-.625.302-1.104.97-.81 1.01.36.046 1.18.215 1.613.8.56.755.542 2.444.542 2.444s.322 4.656-.753 5.23c-.739.396-1.749-.413-3.923-4.113C8.781 9.7 7.94 7.602 7.94 7.602s-.161-.392-.454-.604c-.35-.255-.839-.334-.839-.334l-5.2.036s-.782.022-1.068.356c-.257.298-.021.912-.021.912S4.43 17.36 9.042 22.095c4.23 4.34 9.03 4.056 9.03 4.056h2.178s.657-.072.992-.428c.307-.327.296-.94.296-.94s-.039-2.879 1.314-3.303c1.335-.416 3.052 2.781 4.869 4.013 1.374.931 2.416.726 2.416.726L35 26.151c.004 0 2.549-.155 1.342-2.127z"/></svg>