<svg width="119" height="46" viewBox="0 0 119 46" fill="none" xmlns="http://www.w3.org/2000/svg">
<path d="M72.7207 39.7565C73.069 39.3494 73.2083 38.8745 73.2083 38.3318C73.2083 37.789 73.069 37.382 72.86 36.9749C72.651 36.5678 72.3028 36.2965 71.8848 36.1608C71.4669 36.0251 70.7703 35.8894 69.8648 35.8894H68.1234V44.2342H69.7952V40.7063C70.631 40.7063 71.1883 40.6385 71.5365 40.5706C71.9545 40.4349 72.3724 40.1636 72.7207 39.7565ZM71.4669 38.8067C71.3972 38.9424 71.2579 39.0102 71.1186 39.0781C70.9793 39.1459 70.7007 39.1459 70.2827 39.1459H69.7952V37.4498H70.2827C70.7703 37.4498 71.1186 37.5177 71.3276 37.5855C71.6062 37.7212 71.7455 37.9926 71.7455 38.2639C71.6062 38.4675 71.5366 38.671 71.4669 38.8067Z" fill="white"/>
<path d="M75.5069 35.8894L72.1635 44.2342H73.8352L74.5317 42.5381H78.0145L78.7111 44.2342H80.3828L77.1787 35.8894H75.5069ZM75.1587 40.9777L76.3428 38.1282L77.4573 40.9777H75.1587Z" fill="white"/>
<path d="M85.9553 39.6886C86.234 39.3494 86.3733 38.8745 86.3733 38.3318C86.3733 37.789 86.234 37.382 86.025 36.9749C85.816 36.5678 85.4677 36.2965 85.0498 36.1608C84.6319 36.0251 84.005 35.8894 83.0298 35.8894H81.2884V44.2342H82.8905V40.7063H83.0298L84.9802 44.2342H86.7912L84.7712 40.5028C85.2588 40.3671 85.6767 40.0279 85.9553 39.6886ZM84.4926 38.9424C84.2836 39.0781 83.9353 39.1459 83.4477 39.1459H82.8905V37.4498H83.3084C83.7263 37.4498 84.0746 37.4498 84.2139 37.5177C84.3533 37.5855 84.4926 37.6533 84.6319 37.789C84.7015 37.9247 84.7712 38.0604 84.7712 38.2639C84.7712 38.6032 84.7015 38.8067 84.4926 38.9424Z" fill="white"/>
<path d="M87.4878 37.4498H88.9506V44.2342H90.6223V37.4498H92.2244V35.8894H87.4878V37.4498Z" fill="white"/>
<path d="M98.4934 41.3847L94.8017 35.8894H93.1996V44.2342H94.8713V38.7388L98.5631 44.2342H100.096V35.8894H98.4934V41.3847Z" fill="white"/>
<path d="M101.28 44.2342H105.947V42.6738H102.882V40.5028H105.947V38.9424H102.882V37.4498H105.947V35.8894H101.28V44.2342Z" fill="white"/>
<path d="M111.798 39.6886C112.076 39.3494 112.216 38.8745 112.216 38.3318C112.216 37.789 112.076 37.382 111.867 36.9749C111.589 36.5678 111.31 36.2965 110.892 36.1608C110.474 36.0251 109.847 35.8894 108.872 35.8894H107.131V44.2342H108.802V40.7063H108.942L110.892 44.2342H112.703L110.683 40.5028C111.171 40.3671 111.589 40.0279 111.798 39.6886ZM110.335 38.9424C110.126 39.0781 109.778 39.1459 109.29 39.1459H108.802V37.4498H109.22C109.638 37.4498 109.987 37.4498 110.126 37.5177C110.265 37.5855 110.404 37.6533 110.544 37.789C110.613 37.9247 110.683 38.0604 110.683 38.2639C110.683 38.6032 110.544 38.8067 110.335 38.9424Z" fill="white"/>
<path d="M117.231 40.1635C117.092 40.0279 116.743 39.6886 116.116 39.2137C115.42 38.671 115.071 38.3318 114.932 38.1282C114.863 37.9925 114.793 37.8569 114.793 37.7212C114.793 37.5855 114.863 37.4498 115.002 37.3141C115.141 37.1784 115.28 37.1784 115.559 37.1784C115.977 37.1784 116.465 37.4498 116.883 38.0604L118.067 37.0427C117.649 36.5 117.161 36.1608 116.813 35.9572C116.395 35.7537 116.047 35.6859 115.559 35.6859C114.863 35.6859 114.305 35.8894 113.887 36.2964C113.4 36.7035 113.191 37.1784 113.191 37.789C113.191 38.1961 113.33 38.6031 113.609 39.0102C113.887 39.4173 114.514 39.96 115.42 40.7063C115.907 41.1134 116.256 41.3847 116.395 41.5883C116.534 41.7918 116.604 41.9953 116.604 42.131C116.604 42.3346 116.534 42.5381 116.325 42.6738C116.116 42.8095 115.907 42.9451 115.629 42.9451C115.071 42.9451 114.584 42.6059 114.166 41.8596L112.773 42.6738C113.121 43.2844 113.469 43.7593 113.957 44.0306C114.445 44.302 114.932 44.4377 115.559 44.4377C116.325 44.4377 116.952 44.2342 117.44 43.7593C117.927 43.2844 118.206 42.7416 118.206 42.0632C118.206 41.724 118.136 41.3847 117.997 41.1134C117.858 40.842 117.579 40.5028 117.231 40.1635Z" fill="white"/>
<path d="M118.067 0.205383H94.6623H94.314V0.544603V6.37918V6.7184H94.6623H103.021V14.3848C101.976 14.4526 101.14 15.3346 101.14 16.3522C101.14 17.3699 101.976 18.2519 103.021 18.3197C103.021 18.3197 103.021 18.3197 103.091 18.3197V32.1599V32.4991H103.439H109.429H109.778V32.1599V18.3876C109.778 18.3876 109.778 18.3876 109.847 18.3876C110.892 18.3197 111.728 17.4377 111.728 16.4201C111.728 15.4024 110.892 14.5205 109.847 14.4526V6.7184H118.206H118.554V6.37918V0.544603V0.205383H118.067Z" fill="#FFB62C"/>
<path d="M68.0537 32.2277V32.5669H68.402H74.3924H74.7407V32.2277V20.2872H82.4725H82.8208V19.9479V14.1812V13.842H82.4725H74.7407V6.71839H88.1843H88.5326V6.37917V0.544603V0.205383H88.1843H68.3324H67.9841V0.544603V14.3847C67.0089 14.5204 66.2427 15.3346 66.2427 16.3522C66.2427 17.3699 67.0089 18.184 67.9841 18.3197L68.0537 18.3875V20.0158V32.2277V32.2277Z" fill="#FFB62C"/>
<path d="M41.6542 40.0297C35.2459 40.0297 31.0665 36.7054 26.5389 33.1775C23.3347 30.5994 19.9912 28.0214 15.9512 27.0716V19.948V18.3197C16.996 18.2519 17.8319 17.3699 17.8319 16.3522C17.8319 15.3346 16.996 14.4526 15.9512 14.3848V14.1812V6.37918V0.544603V0.205383H15.8119H3.20417V6.7184H9.33388V14.3848C8.28905 14.4526 7.45318 15.3346 7.45318 16.3522C7.45318 17.3699 8.28905 18.2519 9.33388 18.3197C9.33388 18.3197 9.33388 18.3197 9.40354 18.3197V19.948V26.9359C3.48279 28.0892 1.04484 32.092 0 35.4842L5.92075 37.1125C6.82627 33.9238 8.84629 32.6348 12.8167 32.6348C16.1602 32.6348 19.1554 35.0093 22.6382 37.7909C27.3051 41.4545 33.0169 46 41.5845 46C53.426 46 60.113 38.605 60.3916 38.2658L55.7247 34.3309C55.655 34.6022 50.5701 40.0297 41.6542 40.0297Z" fill="#FFB62C"/>
<path d="M25.3547 18.25C26.3299 26.3913 33.4348 32.7686 42.0721 32.7686C50.7095 32.7686 57.8144 26.4591 58.7895 18.25C59.7647 18.1143 60.4613 17.3002 60.4613 16.2825C60.4613 15.3327 59.7647 14.5186 58.7895 14.3151C57.7447 6.24163 50.6398 0 42.0721 0C33.5045 0 26.3996 6.30948 25.3547 14.3829C24.4492 14.5864 23.7527 15.4006 23.7527 16.3504C23.7527 17.3002 24.4492 18.0465 25.3547 18.25ZM42.0721 6.51301C46.948 6.51301 51.0577 9.9052 51.9633 14.3829C51.0577 14.5864 50.2915 15.3327 50.2915 16.3504C50.2915 17.3002 50.9881 18.1143 51.9633 18.3178C51.0577 22.8634 46.948 26.2556 42.0721 26.2556C37.1266 26.2556 33.0865 22.8634 32.181 18.3178C33.1562 18.1821 33.9224 17.368 33.9224 16.3504C33.9224 15.4006 33.1562 14.5864 32.2507 14.3829C33.0865 9.9052 37.1962 6.51301 42.0721 6.51301Z" fill="#FFB62C"/>
<path d="M66.3123 42.7416H64.7103V44.325H66.3123V42.7416Z" fill="white"/>
</svg>
