<svg width="104" height="67" viewBox="0 0 104 67" fill="none" xmlns="http://www.w3.org/2000/svg"><path d="M64.49 40.905c-.58-.448-.9-.438-1.48.039-3.27 2.698-6.61 5.318-9.89 8.016-1.94 1.597-3.8 1.178-5.3-.215-2.86-2.64-5.93-5.064-8.92-7.567-.12-.098-.25-.176-.39-.263-4.66 3.594-9.29 7.168-13.93 10.743A8445.36 8445.36 0 006.27 65.819c-.25.195-.43.487-.64.73h91.65c-.61-.564-1.18-1.188-1.84-1.694-10.31-7.996-20.64-15.964-30.95-23.95zm-35.4-8.056A24829.59 24829.59 0 004.6 12.18C3.1 10.906 1.54 9.688 0 8.451v52.77c.16.37.31.75.5 1.188 11.09-8.561 22.11-17.074 33.2-25.645-1.6-1.354-3.1-2.649-4.61-3.915z" fill="#FFB62C"/><path d="M14.36 13.614c6.1 5.152 12.19 10.314 18.29 15.476 4.99 4.217 10 8.405 14.96 12.652 2.17 1.86 3.63 1.967 5.85.175 7.96-6.457 15.92-12.915 23.86-19.392 7.82-6.389 15.61-12.807 23.43-19.187.59-.487.62-.779.1-1.295C99.35.533 97.47.007 95.41.007c-29.04-.01-58.08-.01-87.12 0-.84 0-1.69.049-2.52.195-1.71.312-3.27.974-4.61 2.22.15.176.21.244.27.303 4.31 3.623 8.63 7.246 12.93 10.889zm54.35 22.711c11.34 8.756 22.6 17.454 34.07 26.317.13-1.15.31-2.017.31-2.883.02-16.645.01-33.29.01-49.935V8.16c-11.53 9.447-22.91 18.768-34.39 28.166z" fill="#FFB62C"/></svg>