<?xml version="1.0" encoding="utf-8"?><svg width="38" height="32" xmlns="http://www.w3.org/2000/svg" viewBox="0 0 38 32"><path fill-rule="evenodd" clip-rule="evenodd" d="M21.899 2.881c4.244 0 4.747.018 6.425.094 1.549.072 2.391.33 2.952.55.742.29 1.27.635 1.827 1.196.557.56.9 1.092 1.189 1.84.218.563.478 1.411.546 2.97.075 1.689.093 2.192.093 6.467 0 4.272-.018 4.778-.093 6.463-.071 1.56-.328 2.408-.546 2.972a4.961 4.961 0 01-1.189 1.839 4.924 4.924 0 01-1.827 1.196c-.56.22-1.403.482-2.952.55-1.678.08-2.178.093-6.425.093-4.245 0-4.748-.014-6.426-.093-1.549-.072-2.391-.33-2.952-.55a4.924 4.924 0 01-1.827-1.196 4.961 4.961 0 01-1.189-1.84c-.217-.563-.478-1.411-.546-2.97-.075-1.69-.093-2.192-.093-6.464 0-4.271.015-4.778.093-6.467.072-1.559.329-2.407.546-2.97a4.962 4.962 0 011.189-1.84 4.924 4.924 0 011.827-1.197c.56-.219 1.403-.477 2.952-.55 1.678-.075 2.181-.093 6.426-.093zm0-2.881c-4.316 0-4.858.018-6.554.097-1.692.079-2.849.348-3.859.744A7.827 7.827 0 008.67 2.684a7.852 7.852 0 00-1.835 2.834c-.392 1.017-.66 2.181-.739 3.884C6.018 11.109 6 11.655 6 15.998c0 4.344.018 4.89.096 6.596.079 1.703.347 2.867.74 3.884a7.852 7.852 0 001.834 2.835 7.79 7.79 0 002.816 1.846c1.01.396 2.167.665 3.859.744 1.696.079 2.238.097 6.554.097 4.315 0 4.858-.018 6.553-.097 1.692-.075 2.849-.348 3.859-.744a7.791 7.791 0 002.816-1.846 7.852 7.852 0 001.835-2.835c.393-1.017.66-2.18.739-3.884.078-1.706.096-2.252.096-6.596 0-4.347-.018-4.89-.096-6.596-.079-1.703-.346-2.867-.739-3.884a7.852 7.852 0 00-1.835-2.834A7.791 7.791 0 0032.311.837C31.3.442 30.144.172 28.452.093 26.757.018 26.218 0 21.9 0zm.032 7.81c-4.512 0-8.17 3.683-8.17 8.224s3.658 8.224 8.17 8.224c4.512 0 8.17-3.683 8.17-8.224s-3.658-8.224-8.17-8.224zm0 13.56c-2.927 0-5.305-2.39-5.305-5.34 0-2.95 2.374-5.338 5.305-5.338 2.927 0 5.304 2.389 5.304 5.338 0 2.95-2.374 5.34-5.304 5.34zM32.247 7.43a1.897 1.897 0 01-1.892 1.904 1.897 1.897 0 01-1.892-1.904c0-1.053.846-1.904 1.892-1.904a1.897 1.897 0 011.892 1.904z"/></svg>