<svg width="93" height="36" viewBox="0 0 93 36" fill="none" xmlns="http://www.w3.org/2000/svg">
<path d="M56.9118 31.1138C57.1844 30.7952 57.2934 30.4236 57.2934 29.9988C57.2934 29.574 57.1844 29.2555 57.0209 28.9369C56.8573 28.6183 56.5848 28.4059 56.2577 28.2998C55.9306 28.1936 55.3855 28.0874 54.6768 28.0874H53.314V34.6181H54.6223V31.8571C55.2764 31.8571 55.7126 31.804 55.9851 31.7509C56.3122 31.6447 56.6393 31.4324 56.9118 31.1138ZM55.9306 30.3705C55.8761 30.4767 55.7671 30.5297 55.658 30.5828C55.549 30.6359 55.331 30.6359 55.0039 30.6359H54.6223V29.3086H55.0039C55.3855 29.3086 55.658 29.3617 55.8216 29.4147C56.0396 29.5209 56.1487 29.7333 56.1487 29.9457C56.0396 30.105 55.9851 30.2643 55.9306 30.3705Z" fill="#7A1316"/>
<path d="M59.0922 28.0874L56.4756 34.6181H57.7839L58.329 33.2907H61.0547L61.5998 34.6181H62.9082L60.4005 28.0874H59.0922ZM58.8197 32.0695L59.7464 29.8395L60.6186 32.0695H58.8197Z" fill="#7A1316"/>
<path d="M67.2691 31.0607C67.4872 30.7952 67.5962 30.4236 67.5962 29.9988C67.5962 29.574 67.4872 29.2555 67.3236 28.9369C67.1601 28.6183 66.8875 28.4059 66.5604 28.2998C66.2333 28.1936 65.7427 28.0874 64.9795 28.0874H63.6167V34.6181H64.8705V31.8571H64.9795L66.5059 34.6181H67.9233L66.3424 31.6978C66.724 31.5916 67.051 31.3262 67.2691 31.0607ZM66.1243 30.4767C65.9608 30.5828 65.6882 30.6359 65.3066 30.6359H64.8705V29.3086H65.1976C65.5247 29.3086 65.7972 29.3086 65.9063 29.3617C66.0153 29.4147 66.1243 29.4678 66.2333 29.574C66.2879 29.6802 66.3424 29.7864 66.3424 29.9457C66.3424 30.2112 66.2879 30.3705 66.1243 30.4767Z" fill="#7A1316"/>
<path d="M68.4688 29.3086H69.6135V34.6181H70.9219V29.3086H72.1756V28.0874H68.4688V29.3086Z" fill="#7A1316"/>
<path d="M77.082 32.3881L74.1928 28.0874H72.939V34.6181H74.2473V30.3174L77.1365 34.6181H78.3358V28.0874H77.082V32.3881Z" fill="#7A1316"/>
<path d="M79.2622 34.6181H82.9146V33.3969H80.516V31.6978H82.9146V30.4767H80.516V29.3086H82.9146V28.0874H79.2622V34.6181Z" fill="#7A1316"/>
<path d="M87.4937 31.0607C87.7117 30.7952 87.8208 30.4236 87.8208 29.9988C87.8208 29.574 87.7117 29.2555 87.5482 28.9369C87.3302 28.6183 87.1121 28.4059 86.785 28.2998C86.4579 28.1936 85.9673 28.0874 85.2041 28.0874H83.8413V34.6181H85.1496V31.8571H85.2586L86.785 34.6181H88.2024L86.6215 31.6978C87.0031 31.5916 87.3302 31.3262 87.4937 31.0607ZM86.3489 30.4767C86.1854 30.5828 85.9128 30.6359 85.5312 30.6359H85.1496V29.3086H85.4767C85.8038 29.3086 86.0764 29.3086 86.1854 29.3617C86.2944 29.4147 86.4034 29.4678 86.5125 29.574C86.567 29.6802 86.6215 29.7864 86.6215 29.9457C86.6215 30.2112 86.5125 30.3705 86.3489 30.4767Z" fill="#7A1316"/>
<path d="M91.7457 31.4324C91.6367 31.3262 91.3641 31.0607 90.8735 30.689C90.3283 30.2643 90.0558 29.9988 89.9468 29.8395C89.8922 29.7333 89.8377 29.6271 89.8377 29.5209C89.8377 29.4147 89.8922 29.3085 90.0013 29.2024C90.1103 29.0962 90.2193 29.0962 90.4374 29.0962C90.7645 29.0962 91.1461 29.3085 91.4731 29.7864L92.3999 28.99C92.0728 28.5652 91.6912 28.2997 91.4186 28.1404C91.0915 27.9812 90.819 27.9281 90.4374 27.9281C89.8922 27.9281 89.4561 28.0874 89.1291 28.4059C88.7475 28.7245 88.5839 29.0962 88.5839 29.574C88.5839 29.8926 88.6929 30.2112 88.911 30.5297C89.1291 30.8483 89.6197 31.2731 90.3283 31.8571C90.7099 32.1757 90.9825 32.3881 91.0915 32.5474C91.2006 32.7066 91.2551 32.8659 91.2551 32.9721C91.2551 33.1314 91.2006 33.2907 91.037 33.3969C90.8735 33.5031 90.7099 33.6093 90.4919 33.6093C90.0558 33.6093 89.6742 33.3438 89.3471 32.7597L88.2568 33.3969C88.5294 33.8747 88.802 34.2464 89.1836 34.4588C89.5652 34.6712 89.9468 34.7774 90.4374 34.7774C91.037 34.7774 91.5276 34.6181 91.9092 34.2464C92.2908 33.8747 92.5089 33.45 92.5089 32.919C92.5089 32.6535 92.4544 32.3881 92.3453 32.1757C92.2363 31.9633 92.0183 31.6978 91.7457 31.4324Z" fill="#7A1316"/>
<path d="M92.4001 0.160706H74.0836H73.811V0.426182V4.99238V5.25785H74.0836H80.6252V11.2576C79.8075 11.3107 79.1533 12.001 79.1533 12.7974C79.1533 13.5938 79.8075 14.2841 80.6252 14.3372C80.6252 14.3372 80.6252 14.3372 80.6797 14.3372V25.1686V25.4341H80.9523H85.6404H85.913V25.1686V14.3902C85.913 14.3902 85.913 14.3902 85.9675 14.3902C86.7852 14.3372 87.4394 13.6469 87.4394 12.8505C87.4394 12.0541 86.7852 11.3638 85.9675 11.3107V5.25785H92.5091H92.7817V4.99238V0.426182V0.160706H92.4001Z" fill="#7A1316"/>
<path d="M53.2591 25.2217V25.4871H53.5317H58.2199H58.4924V25.2217V15.8769H64.5434H64.816V15.6114V11.0983V10.8328H64.5434H58.4924V5.25785H69.0135H69.2861V4.99237V0.426182V0.160706H69.0135H53.4772H53.2046V0.426182V11.2576C52.4414 11.3638 51.8418 12.0009 51.8418 12.7974C51.8418 13.5938 52.4414 14.2309 53.2046 14.3371L53.2591 14.3902V15.6645V25.2217Z" fill="#7A1316"/>
<path d="M32.599 31.3276C27.5837 31.3276 24.3129 28.726 20.7696 25.965C18.262 23.9474 15.6453 21.9298 12.4835 21.1864V15.6114V14.3371C13.3012 14.284 13.9554 13.5938 13.9554 12.7974C13.9554 12.0009 13.3012 11.3107 12.4835 11.2576V11.0983V4.99237V0.426182V0.160706H12.3745H2.50761V5.25785H7.30478V11.2576C6.48708 11.3107 5.83292 12.0009 5.83292 12.7974C5.83292 13.5938 6.48708 14.284 7.30478 14.3371C7.30478 14.3371 7.30478 14.3371 7.3593 14.3371V15.6114V21.0802C2.72567 21.9829 0.8177 25.1155 0 27.7702L4.63363 29.0445C5.34231 26.549 6.92319 25.5402 10.0304 25.5402C12.6471 25.5402 14.9912 27.3986 17.7168 29.5755C21.3692 32.4426 25.8393 36 32.5445 36C41.8117 36 47.045 30.2126 47.263 29.9471L43.6107 26.8676C43.5561 27.08 39.5767 31.3276 32.599 31.3276Z" fill="#7A1316"/>
<path d="M19.8432 14.2826C20.6063 20.654 26.1667 25.645 32.9264 25.645C39.686 25.645 45.2464 20.7071 46.0095 14.2826C46.7727 14.1764 47.3179 13.5393 47.3179 12.7429C47.3179 11.9995 46.7727 11.3624 46.0095 11.2031C45.1918 4.88476 39.6315 0 32.9264 0C26.2212 0 20.6609 4.93785 19.8432 11.2562C19.1345 11.4155 18.5894 12.0526 18.5894 12.7959C18.5894 13.5393 19.1345 14.1233 19.8432 14.2826ZM32.9264 5.09714C36.7423 5.09714 39.9586 7.7519 40.6672 11.2562C39.9586 11.4155 39.3589 11.9995 39.3589 12.7959C39.3589 13.5393 39.9041 14.1764 40.6672 14.3357C39.9586 17.8931 36.7423 20.5478 32.9264 20.5478C29.0559 20.5478 25.8941 17.8931 25.1855 14.3357C25.9487 14.2295 26.5483 13.5924 26.5483 12.7959C26.5483 12.0526 25.9487 11.4155 25.24 11.2562C25.8941 7.7519 29.1104 5.09714 32.9264 5.09714Z" fill="#7A1316"/>
<path d="M51.8964 33.45H50.6426V34.6892H51.8964V33.45Z" fill="#7A1316"/>
</svg>
