<svg width="93" height="36" viewBox="0 0 93 36" fill="none" xmlns="http://www.w3.org/2000/svg"><path d="M56.912 31.114c.272-.319.381-.69.381-1.115a2.2 2.2 0 00-.272-1.062 1.28 1.28 0 00-.763-.637c-.327-.106-.873-.213-1.581-.213h-1.363v6.531h1.308v-2.76c.654 0 1.09-.054 1.363-.107a2.08 2.08 0 00.927-.637zm-.981-.744c-.055.107-.164.16-.273.213-.109.053-.327.053-.654.053h-.382v-1.327h.382c.382 0 .654.053.818.106a.582.582 0 01.327.53c-.11.16-.164.32-.218.425zm3.161-2.283l-2.616 6.531h1.308l.545-1.327h2.726l.545 1.327h1.308l-2.508-6.53h-1.308zm-.272 3.982l.926-2.23.873 2.23h-1.8zm8.45-1.009c.217-.265.326-.636.326-1.061 0-.425-.109-.743-.272-1.062a1.28 1.28 0 00-.764-.637c-.327-.106-.817-.213-1.58-.213h-1.363v6.531h1.254v-2.76h.109l1.526 2.76h1.417l-1.58-2.92c.381-.106.708-.372.926-.637zm-1.146-.583c-.163.106-.436.159-.817.159h-.436v-1.327h.327c.327 0 .6 0 .708.053.11.053.218.106.327.212.055.106.11.212.11.372 0 .265-.055.424-.219.53zm2.345-1.168h1.145v5.31h1.308v-5.31h1.254v-1.222h-3.707v1.222zm8.613 3.079l-2.89-4.3H72.94v6.53h1.308v-4.3l2.89 4.3h1.199v-6.53h-1.254v4.3zm2.18 2.23h3.653v-1.221h-2.399v-1.7h2.399v-1.22h-2.399v-1.168h2.399v-1.222h-3.653v6.531zm8.232-3.558c.218-.265.327-.636.327-1.061a2.2 2.2 0 00-.273-1.062c-.218-.319-.436-.531-.763-.637-.327-.106-.818-.213-1.58-.213H83.84v6.531h1.309v-2.76h.109l1.526 2.76h1.417l-1.58-2.92a1.56 1.56 0 00.872-.637zm-1.145-.583c-.164.106-.436.159-.818.159h-.381v-1.327h.327c.327 0 .6 0 .708.053.11.053.218.106.328.212.054.106.108.212.108.372 0 .265-.108.424-.272.53zm5.397.955a8.755 8.755 0 00-.872-.743c-.546-.425-.818-.69-.927-.85-.055-.106-.11-.212-.11-.318 0-.106.055-.213.164-.319.11-.106.218-.106.436-.106.328 0 .71.212 1.036.69l.927-.796a3.382 3.382 0 00-.981-.85c-.328-.159-.6-.212-.982-.212-.545 0-.98.16-1.308.478-.382.319-.545.69-.545 1.168 0 .319.109.637.327.956.218.318.709.743 1.417 1.327.382.319.654.531.763.69.11.16.164.319.164.425 0 .16-.054.319-.218.425-.163.106-.327.212-.545.212-.436 0-.818-.265-1.145-.85l-1.09.638c.272.478.545.85.927 1.062a2.44 2.44 0 001.253.318c.6 0 1.09-.159 1.472-.53.382-.372.6-.797.6-1.328 0-.265-.055-.53-.164-.743-.109-.213-.327-.478-.6-.744zM92.4.16H73.811v5.098h6.814v6c-.817.053-1.472.743-1.472 1.54 0 .796.654 1.486 1.472 1.54h.055v11.096h5.233V14.39h.055c.817-.053 1.471-.743 1.471-1.54 0-.796-.654-1.486-1.471-1.54V5.259h6.814V.16H92.4zM53.26 25.222v.265h5.232v-9.61h6.324v-5.044h-6.323V5.258h10.793V.16H53.205v11.098a1.563 1.563 0 00-1.363 1.54c0 .796.6 1.433 1.363 1.54l.054.052v10.832zm-20.661 6.106c-5.015 0-8.286-2.602-11.83-5.363-2.507-2.018-5.124-4.035-8.285-4.779v-6.849c.817-.053 1.471-.743 1.471-1.54 0-.796-.654-1.486-1.472-1.54V.162H2.508v5.097h4.797v6c-.818.053-1.472.743-1.472 1.54 0 .796.654 1.486 1.472 1.54h.054v6.741C2.726 21.982.818 25.115 0 27.77l4.634 1.273c.708-2.495 2.29-3.504 5.396-3.504 2.617 0 4.961 1.859 7.687 4.036C21.369 32.443 25.839 36 32.545 36c9.267 0 14.5-5.787 14.718-6.053l-3.652-3.08c-.055.213-4.034 4.46-11.012 4.46z" fill="#7A1316"/><path d="M19.843 14.283c.763 6.371 6.324 11.362 13.083 11.362 6.76 0 12.32-4.938 13.084-11.362.763-.107 1.308-.744 1.308-1.54 0-.744-.545-1.38-1.308-1.54C45.192 4.885 39.632 0 32.925 0 26.22 0 20.66 4.938 19.842 11.256c-.709.16-1.254.797-1.254 1.54s.546 1.327 1.254 1.487zm13.083-9.186c3.816 0 7.033 2.655 7.741 6.16-.708.159-1.308.742-1.308 1.539 0 .743.545 1.38 1.308 1.54-.708 3.557-3.925 6.212-7.74 6.212-3.871 0-7.033-2.655-7.741-6.212a1.563 1.563 0 001.362-1.54c0-.743-.6-1.38-1.308-1.54.654-3.504 3.87-6.159 7.686-6.159zm18.97 28.353h-1.253v1.24h1.253v-1.24z" fill="#7A1316"/></svg>