<svg width="175" height="175" viewBox="0 0 175 175" fill="none" xmlns="http://www.w3.org/2000/svg"><path d="M87.287 141.023a53.783 53.783 0 01-20.094-3.908c-13.367-5.345-23.853-15.579-29.526-28.792-5.656-13.213-5.832-27.846-.457-41.182 5.357-13.336 15.615-23.798 28.859-29.459 13.244-5.642 27.91-5.818 41.278-.455 13.367 5.345 23.853 15.579 29.526 28.792 5.656 13.214 5.832 27.846.457 41.182-5.357 13.336-15.615 23.798-28.859 29.459-6.815 2.909-14 4.363-21.184 4.363zM87.27 35.071a51.98 51.98 0 00-20.498 4.224c-12.823 5.467-22.73 15.579-27.929 28.494-5.199 12.916-5.023 27.058.44 39.851 5.48 12.792 15.615 22.676 28.56 27.863 12.945 5.187 27.12 5.012 39.943-.438 12.822-5.468 22.729-15.579 27.928-28.494 5.182-12.916 5.024-27.058-.439-39.85-5.48-12.794-15.615-22.677-28.561-27.864-6.288-2.524-12.875-3.786-19.444-3.786z" fill="#FFB62C"/><path d="M168.42 118.627c8.466-21.625 8.22-43.425-.72-64.857h.017l-.351-.806-.351-.806h-.018C157.67 30.9 142.037 15.654 120.52 6.822v-.017l-.808-.333-.808-.333v.017c-21.675-8.446-43.526-8.201-65.007.736v-.017l-.808.35-.808.35v.018C30.974 16.9 15.693 32.478 6.84 53.945h-.018l-.333.806-.334.824h.018C-2.294 77.2-2.047 99 6.893 120.432h-.018l.351.806.352.806h.017c9.327 21.257 24.96 36.504 46.477 45.336v.017l.808.333.808.333v-.017c21.675 8.447 43.526 8.201 65.008-.719v.018l.808-.351.808-.35v-.018c21.306-9.305 36.588-24.902 45.441-46.369h.017l.334-.806.334-.806-.018-.018zm-31.634-11.636l-.317.736 29.685 11.882c-8.677 21.029-23.642 36.292-44.509 45.423l-12.559-29.301c-.527.245-1.072.473-1.616.683l12.541 29.284c-21.025 8.744-42.437 8.99-63.673.718l11.874-29.546c-.281-.105-.545-.193-.826-.298-.28-.105-.544-.228-.808-.35l-11.873 29.546c-21.078-8.657-36.377-23.588-45.529-44.407l29.351-12.512a26.027 26.027 0 01-.685-1.613L8.51 119.749C-.256 98.772-.502 77.41 7.789 56.223l29.684 11.882c.088-.246.176-.508.281-.754.123-.298.246-.578.387-.876L8.456 54.593c8.677-21.029 23.642-36.292 44.51-45.423L65.56 38.56a26.223 26.223 0 011.616-.684L54.58 8.487c21.028-8.745 42.44-8.972 63.675-.701L106.31 37.472c.281.105.545.193.826.298.281.105.544.228.808.35l11.944-29.686c21.078 8.657 36.377 23.588 45.528 44.407L135.96 65.406c.246.526.474 1.069.685 1.612l29.456-12.565c8.765 20.977 9.011 42.339.721 63.526l-29.685-11.882c-.123.298-.229.596-.351.894z" fill="#FFB62C"/><path d="M107.294 115.087L87.305 104.59l-20.006 10.497 3.811-22.22L54.933 77.13l22.36-3.242 9.994-20.206 9.995 20.206 22.36 3.242-16.177 15.737 3.829 22.22zM87.305 102.61l17.67 9.27-3.372-19.627 14.298-13.897L96.158 75.5l-8.853-17.857L78.47 75.5l-19.743 2.856 14.298 13.897-3.373 19.627 17.653-9.27z" fill="#FFB62C"/></svg>