<svg width="175" height="175" viewBox="0 0 175 175" fill="none" xmlns="http://www.w3.org/2000/svg"><path d="M38.118 174.793l-1.728-1.375c-.83-.652-1.658-1.304-2.452-1.956-8.888-7.279-16.118-14.612-22.079-22.367-4.937-6.451-8.13-12.215-10.052-18.137C-.168 124.842-.52 119.696.732 114.76c2.521-9.993 12.538-17.167 22.802-16.321 5.713.458 10.598 2.785 14.53 6.874 1.73-1.851 3.546-3.243 5.52-4.265 7.178-3.702 14.303-3.631 21.198.176 8.147 4.512 12.503 13.572 11.092 23.107-1.04 6.945-3.88 13.642-8.923 21.063-5.343 7.843-12.274 15.334-21.78 23.565-1.428 1.251-2.909 2.45-4.408 3.666l-2.645 2.168zm-16.224-74.662c-8.888 0-17.265 6.363-19.452 15.052-1.164 4.601-.829 9.43 1.04 15.211 1.852 5.729 4.974 11.334 9.788 17.608 5.873 7.667 12.997 14.876 21.797 22.085.794.652 1.605 1.287 2.434 1.939l.617.476 1.552-1.269c1.481-1.216 2.945-2.397 4.373-3.631 9.4-8.125 16.224-15.511 21.48-23.231 4.902-7.191 7.653-13.642 8.64-20.322 1.306-8.795-2.697-17.15-10.192-21.309-6.349-3.508-12.909-3.56-19.54-.141-2.01 1.04-3.844 2.52-5.625 4.529l-.6.67-.864-.793c-.159-.141-.3-.264-.423-.405-3.686-3.896-8.095-5.993-13.491-6.434-.547 0-1.04-.035-1.534-.035zm130.305 74.31h-37.616l1.464-1.499c4.25-4.335 7.742-9.165 10.422-14.364-8.905 6.609-17.846 6.292-26.646-.952-6.525-5.376-8.712-15.211-5.22-23.389 3.456-8.091 11.321-13.026 19.857-12.656-1.781-4.388-2.063-8.865-.794-13.342 1.429-5.023 4.356-9.007 8.712-11.827 7.495-4.847 17.282-4.371 24.354 1.216 5.872 4.636 10.158 13.96 6.296 23.936 9.082-.3 17.582 5.517 20.421 14.382 2.822 8.796-.423 18.243-8.042 23.513-4.32 2.996-9.187 4.142-14.478 3.454-3.633-.475-6.948-1.85-9.893-4.106 1.023 2.044 2.134 3.913 3.368 5.622 1.481 2.063 3.086 4.072 4.656 6.028.688.864 1.358 1.71 2.028 2.574l1.111 1.41zm-33.471-1.763h29.838c-.3-.37-.6-.758-.899-1.128-1.57-1.974-3.192-4.001-4.691-6.098-2.064-2.856-3.792-6.081-5.291-9.871l-1.781-4.512 3.263 3.596c3.368 3.719 7.389 5.904 11.991 6.504 4.832.634 9.294-.423 13.244-3.155 6.984-4.83 9.946-13.484 7.354-21.521-2.733-8.549-11.163-14.048-20.016-13.061l-1.552.176.653-1.41c5.096-11.051-1.182-19.987-5.202-23.16-6.472-5.111-15.431-5.57-22.291-1.11-3.986 2.573-6.666 6.222-7.971 10.84-1.287 4.512-.847 9.042 1.287 13.466l.706 1.445-1.605-.194c-8.342-.987-16.19 3.631-19.54 11.474-3.192 7.474-1.199 16.445 4.726 21.327 9.012 7.421 18.235 6.91 27.405-1.533l3.033-2.785-1.622 3.79c-2.645 6.133-6.349 11.826-11.039 16.92zm14.901-90.983l-40.86-40.856L133.629 0l40.86 40.856-40.86 40.839zM95.255 40.856L133.63 79.21l38.356-38.336L133.629 2.52 95.255 40.856zM55.823 76.16h-35.71l1.463-1.498c3.827-3.913 6.878-8.055 9.294-12.585l-.582.423c-4.197 2.873-8.8 3.72-13.685 2.486-6.013-1.499-10.405-4.354-13.455-8.725C.502 52.47-.485 48.153.238 43.465c.882-5.729 3.456-11.193 8.094-17.203 6.349-8.213 14.55-15.74 25.853-23.724.917-.652 1.905-1.34 2.945-1.939.494-.3 1.393-.37 1.975.018 13.403 9.06 22.503 17.273 29.486 26.615 3.633 4.864 5.925 9.605 7.037 14.505 1.922 8.478-1.623 16.216-9.488 20.728-2.91 1.657-6.155 2.662-9.929 3.05-3.103.317-6.154-.477-9.346-2.433a23.475 23.475 0 01-1.605-1.093c.141.282.3.547.459.829.899 1.586 1.728 2.96 2.539 4.16a56.786 56.786 0 002.98 3.965c.706.864 1.464 1.692 2.222 2.556l2.363 2.661zM24.24 74.398h27.634a61.655 61.655 0 01-2.028-2.327 58.733 58.733 0 01-3.068-4.089c-.847-1.234-1.71-2.644-2.628-4.283a71.233 71.233 0 01-1.587-3.05l-2.434-4.758 3.069 2.309c.511.37.987.758 1.481 1.145 1.04.829 2.028 1.604 3.086 2.257 2.84 1.744 5.52 2.45 8.236 2.168 3.527-.353 6.542-1.287 9.223-2.82 7.266-4.16 10.422-11.017 8.659-18.807-1.058-4.653-3.263-9.183-6.737-13.836-6.86-9.183-15.818-17.273-29.062-26.21.035.036-.089.036-.124.053a38.2 38.2 0 00-2.786 1.851C24.027 11.88 15.933 19.3 9.708 27.355c-4.444 5.763-6.913 10.963-7.742 16.392-.652 4.23.23 8.108 2.61 11.527 2.804 4 6.86 6.627 12.45 8.02 4.427 1.11 8.448.387 12.274-2.239.812-.546 1.57-1.198 2.363-1.868.388-.335.776-.67 1.2-.987l2.821-2.274-1.463 3.314c-2.452 5.552-5.732 10.522-9.982 15.158z" fill="#FFB62C"/></svg>