<svg width="89" height="87" viewBox="0 0 89 87" fill="none" xmlns="http://www.w3.org/2000/svg"><path d="M2.02 43.019c.08-.867.17-2.201.33-3.526.26-2.123-.49-4.032-1.08-6.01C-1.57 23.92.32 15.29 7.28 7.965c5.61-5.893 12.77-8.416 20.96-7.9 2.2.137 4.48.604 6.5 1.423 2.24.915 4.4.76 6.66.691 2.52-.078 5.07-.175 7.57.078 6.13.633 11.85 2.59 17.11 5.727 8.05 4.802 13.82 11.493 17.31 20.045 2.1 5.162 3.08 10.529 3 16.08-.01.731-.03 1.462-.17 2.173-.58 2.97.71 5.62 1.42 8.386 1.7 6.584.77 12.837-2.52 18.837-1.81 3.302-4.43 5.825-7.36 8.123-2.68 2.104-5.87 3.419-9.1 4.169-2.85.662-5.88 1.373-8.92.652-2.9-.691-5.89-.983-8.66-2.26-.73-.34-1.84-.252-2.67 0-2.9.868-5.83.507-8.7.235-2.61-.244-5.26-.809-7.72-1.686-3.12-1.12-6.11-2.63-9.08-4.12-1.58-.788-3.03-1.84-4.5-2.844-1.04-.7-2.11-1.412-2.96-2.298-1.88-1.968-3.72-3.984-5.41-6.097-2.89-3.604-4.75-7.754-6.15-12.088C2.66 51.463 2.13 47.5 2.02 43.02zm41.26 24.74c2.74-.42 5.55-.595 8.21-1.306 5.44-1.451 9.18-4.695 10.04-10.383.86-5.659-.95-10.373-6.05-13.363-3.47-2.035-7.3-3.477-10.95-5.25-1.81-.876-3.73-1.685-5.3-2.892-2.4-1.841-1.99-4.987.65-6.487 2.02-1.15 4.27-1.549 6.51-1.091 2.51.506 4.96 1.315 7.39 2.104 2.63.847 5.13.039 5.83-2.163.68-2.152.39-4.256-1.68-5.63-.92-.603-1.92-1.168-2.98-1.49-5.32-1.636-10.73-1.714-16.15-.564-3.93.828-7.32 2.64-9.84 5.785-3.24 4.052-3.66 12.876 3.03 17.152 3.28 2.094 7 3.526 10.48 5.328 2.34 1.208 4.81 2.289 6.85 3.886 2.39 1.88 1.79 5.24-.9 6.72-1.84 1.014-3.88 1.14-5.94.965-2.67-.224-5-1.383-7.42-2.386-1.33-.555-2.87-.848-4.32-.877-2.2-.039-3.76 1.685-3.88 3.818-.15 2.513 1.14 4.16 3.29 5.27 4.1 2.084 8.56 2.513 13.13 2.853z" fill="#FFB62C"/></svg>