<svg width="89" height="87" viewBox="0 0 89 87" fill="none" xmlns="http://www.w3.org/2000/svg">
<path fill-rule="evenodd" clip-rule="evenodd" d="M88.8161 3.63301L76.1161 77.9879C75.9461 78.923 75.4261 79.6534 74.5261 80.1697C74.0661 80.4326 73.5461 80.5593 72.9861 80.5593C72.6261 80.5593 72.2261 80.4813 71.7961 80.3158L49.3361 71.355L37.3361 85.6338C36.7361 86.374 35.9361 86.7441 34.9061 86.7441C34.4761 86.7441 34.1161 86.676 33.8161 86.5493C33.1861 86.3253 32.6861 85.9455 32.3061 85.4098C31.9261 84.8741 31.7361 84.2897 31.7361 83.6468V66.7577L74.5861 15.4865L21.5761 60.2709L1.98612 52.4302C0.766125 51.9725 0.106125 51.0861 0.006125 49.7712C-0.063875 48.4758 0.466125 47.531 1.59613 46.9174L84.1061 0.438298C84.5961 0.146099 85.1261 0 85.6861 0C86.3461 0 86.9461 0.175319 87.4661 0.535698C88.5661 1.30516 89.0161 2.33759 88.8161 3.63301Z" fill="#000"/>
</svg>
