<svg width="65" height="77" viewBox="0 0 65 77" fill="none" xmlns="http://www.w3.org/2000/svg">
<path d="M49.2886 41.0069L47.0971 50.2637H31.85C33.8186 56.5811 38.121 59.7336 44.7014 59.7336C51.9319 59.7336 58.6981 57.3708 65 52.6453V71.5913C59.7752 75.1971 53.4713 77 46.0881 77C34.1487 77 25.3149 74.2424 19.5867 68.7272C13.8584 63.212 10.3567 57.0575 9.08143 50.2637H0L2.38333 41.0069H7.95476C7.87128 40.1133 7.83821 39.2156 7.85571 38.3182C7.84039 37.3395 7.87344 36.3606 7.95476 35.3852H1.2381L3.61524 26.1221H9.08143C13.4313 8.70736 25.383 0 44.9367 0C51.3335 0 57.8149 1.73395 64.381 5.20186L59.8433 23.6214C55.3037 19.3931 50.5576 17.2768 45.6052 17.2727C39.1135 17.2727 34.7203 20.2225 32.4257 26.1221H50.5267L48.329 35.3852H30.649C30.581 36.062 30.55 37.0335 30.55 38.3182V41.0069H49.2886Z" fill="#FFB62C"/>
</svg>
