<svg width="60" height="77" viewBox="0 0 60 77" fill="none" xmlns="http://www.w3.org/2000/svg">
<path fill-rule="evenodd" clip-rule="evenodd" d="M23.9008 13.2537C22.7102 9.74452 21.6449 6.19778 20.7676 2.60091C24.1389 -1.09622 37.1603 -0.607447 40.9013 2.53825L37.4047 10.7847C39.2846 8.3346 39.9113 7.32572 41.0079 5.96593C41.474 6.27218 41.916 6.61365 42.3301 6.98734C43.3139 7.88342 44.21 8.86724 44.3729 10.2458C44.4274 10.7399 44.3719 11.24 44.2105 11.7102C44.0491 12.1803 43.7857 12.609 43.4392 12.9654L35.4872 22.2333C34.4676 22.0704 33.4649 21.8145 32.4919 21.4688C32.9431 20.4098 33.4883 19.2443 33.9395 18.179L31.0444 21.3122C28.4471 20.6655 25.7026 21.0002 23.3368 22.2521L15.2721 12.5644C14.8418 12.089 14.5952 11.4758 14.5765 10.8349C14.5765 8.49752 18.0731 6.44844 19.9029 5.70901L23.9008 13.2286V13.2537ZM34.2402 30.743L32.6611 23.543C39.4037 24.7962 50.2068 38.5132 53.7034 44.7482C55.5891 48.1243 57.1381 51.6777 58.328 55.3571C60.8721 64.8443 58.422 73.7237 48.1264 75.7853C41.6784 77.0825 29.6533 77.1765 22.8731 76.8255C15.5791 76.4496 4.29974 76.4496 1.35456 68.9738C-3.40158 56.8924 5.30862 42.4986 13.2606 33.6882C14.2839 32.551 15.3674 31.4695 16.5065 30.4485C19.4016 27.9043 22.5159 24.8902 26.2381 23.637L22.635 30.3231L27.8549 23.4302H30.6058L34.2402 30.768V30.743ZM35.4935 54.3357L34.7165 57.519H29.4089C29.6468 58.5051 30.2272 59.3747 31.0467 59.9727C31.8661 60.5706 32.8714 60.8581 33.8831 60.7837C36.4403 60.7713 38.9223 59.9168 40.9452 58.3524V64.8569C38.9944 66.1434 36.6954 66.7997 34.3593 66.7368C30.1818 66.7368 27.105 65.7885 25.129 63.8918C23.2669 62.2159 21.9873 59.9902 21.4757 57.5378H18.3112L19.1447 54.3545H21.0747C21.0122 53.7106 21.0122 53.0621 21.0747 52.4182H18.7436L19.5708 49.2349H21.4507C22.9838 43.2318 27.1551 40.2302 33.9645 40.2302C36.332 40.267 38.6548 40.8799 40.7322 42.0161L39.153 48.3576C37.8398 47.0164 36.0599 46.2331 34.1838 46.1707C33.1902 46.0998 32.201 46.3602 31.3711 46.9112C30.5411 47.4622 29.9172 48.2728 29.5969 49.2161H35.9071L35.1426 52.3994H28.9891C28.9264 53.026 28.9515 53.7091 28.9515 54.3357H35.4935Z" fill="#FFB62C"/>
</svg>
