<svg width="54" height="70" viewBox="0 0 54 70" fill="none" xmlns="http://www.w3.org/2000/svg">
<path fill-rule="evenodd" clip-rule="evenodd" d="M21.7283 12.0489C20.6459 8.85875 19.6775 5.63444 18.8799 2.36456C21.9447 -0.99647 33.7824 -0.55213 37.1833 2.30759L34.0046 9.8044C35.7136 7.577 36.2832 6.65984 37.2801 5.42367C37.7039 5.70208 38.1057 6.0125 38.4821 6.35222C39.3765 7.16684 40.1911 8.06122 40.3392 9.31448C40.3888 9.76367 40.3384 10.2183 40.1916 10.6457C40.0449 11.0731 39.8054 11.4628 39.4904 11.7868L32.2614 20.2122C31.3344 20.0641 30.4229 19.8315 29.5384 19.5172C29.9485 18.5545 30.4441 17.4949 30.8543 16.5265L28.2224 19.3748C25.8613 18.7869 23.3662 19.0912 21.2156 20.2293L13.884 11.4222C13.4928 10.9901 13.2686 10.4326 13.2516 9.84997C13.2516 7.72512 16.4304 5.86231 18.0938 5.1901L21.7283 12.0261V12.0489ZM31.1277 27.9483L29.6922 21.4028C35.8218 22.5421 45.6428 35.0121 48.8216 40.6803C50.5358 43.7495 51.944 46.9798 53.0257 50.3247C55.3385 58.9495 53.1112 67.0216 43.7515 68.8959C37.8897 70.0751 26.9578 70.1605 20.794 69.8415C14.1631 69.4997 3.9091 69.4997 1.23167 62.7036C-3.09209 51.7204 4.82627 38.6352 12.0553 30.6257C12.9856 29.5919 13.9706 28.6088 15.0062 27.6805C17.6381 25.3677 20.4693 22.6276 23.8531 21.4882L20.5775 27.5666L25.3228 21.3003H27.8237L31.1277 27.971V27.9483ZM32.2671 49.3962L31.5607 52.2901H26.7356C26.9519 53.1866 27.4795 53.9771 28.2245 54.5207C28.9695 55.0643 29.8833 55.3256 30.803 55.258C33.1278 55.2467 35.3841 54.47 37.2232 53.0477V58.9609C35.4497 60.1305 33.3597 60.7271 31.236 60.6699C27.4382 60.6699 24.6411 59.8078 22.8448 58.0836C21.152 56.56 19.9887 54.5367 19.5236 52.3072H16.6468L17.4045 49.4133H19.1591C19.1023 48.8279 19.1023 48.2384 19.1591 47.653H17.0399L17.7919 44.7591H19.5009C20.8946 39.3017 24.6867 36.573 30.8771 36.573C33.0293 36.6064 35.141 37.1637 37.0295 38.1966L35.5939 43.9616C34.4 42.7423 32.782 42.0302 31.0765 41.9734C30.1731 41.909 29.2739 42.1457 28.5194 42.6467C27.7649 43.1476 27.1977 43.8845 26.9065 44.742H32.6431L31.9481 47.6359H26.3539C26.297 48.2056 26.3198 48.8265 26.3198 49.3962H32.2671Z" fill="#FFB62C"/>
</svg>
