<svg width="97" height="77" viewBox="0 0 97 77" fill="none" xmlns="http://www.w3.org/2000/svg">
<g clip-path="url(#clip0_2_9)">
<path d="M20.6235 0C48.3991 0 48.3991 44.1785 20.6235 44.1785C-6.87711 44.1785 -6.87711 0 20.6235 0ZM34.5663 75.4988H21.0479L61.7996 1.50117H75.3102L34.5663 75.4988ZM20.6235 11.6871C19.2638 11.6871 16.953 12.2216 16.6308 13.2984C16.3086 14.3673 16.1514 17.2989 16.1514 22.0932C16.1514 26.9583 16.3164 29.9056 16.6308 30.943C16.953 31.9805 19.2638 32.4992 20.6235 32.4992C22.0539 32.4992 24.4196 31.9648 24.7733 30.888C25.127 29.8191 25.3077 26.8875 25.3077 22.0932C25.3077 17.3067 25.127 14.3673 24.7733 13.2984C24.4196 12.2295 22.0539 11.6871 20.6235 11.6871ZM75.7425 32.8136C103.518 32.8136 103.518 76.9921 75.7425 76.9921C48.2498 77 48.2498 32.8136 75.7425 32.8136ZM75.7425 44.5008C74.3828 44.5008 72.0721 45.0195 71.7498 46.057C71.4276 47.0944 71.2704 50.0417 71.2704 54.9068C71.2704 59.6933 71.4354 62.6327 71.7498 63.7016C72.0721 64.7705 74.3828 65.3129 75.7425 65.3129C77.1729 65.3129 79.5386 64.7784 79.8923 63.7016C80.6547 61.4145 80.6547 48.3991 79.8923 46.112C79.5386 45.0431 77.1729 44.5008 75.7425 44.5008Z" fill="#FFB62C"/>
</g>
<defs>
<clipPath id="clip0_2_9">
<rect width="96.5781" height="77" fill="white"/>
</clipPath>
</defs>
</svg>
