<?xml version="1.0" encoding="utf-8"?><svg viewBox="0 0 45 50" xmlns="http://www.w3.org/2000/svg" xmlns:xlink="http://www.w3.org/1999/xlink"><style>:root>svg{display:none}:root>svg:target{display:block}</style><svg viewBox="0 0 41 41" id="close" xmlns="http://www.w3.org/2000/svg"><path d="M1 1l39 39M1 40L40 1"/></svg><svg viewBox="0 0 40 45" id="document" xmlns="http://www.w3.org/2000/svg"><path d="M39.969 7.51c0-.384-.03-.77-.083-1.15-.214-1.5-.894-2.772-1.977-3.815-1.293-1.238-2.852-1.842-4.64-1.842-8.755 0-17.51-.005-26.266.01-.544 0-1.098.073-1.632.19-1.458.321-2.643 1.11-3.571 2.27C.794 4.432.352 5.889.352 7.492c.005 10.111 0 11.656.005 21.768 0 .414.01.833.029 1.247a6.182 6.182 0 001.122 3.304c1.297 1.847 3.095 2.797 5.35 2.865.388.01.777 0 1.18 0-.175-1.174-.087-2.329 0-3.503-.442 0-.86.01-1.273-.005a2.886 2.886 0 01-1.642-.56c-.918-.659-1.326-1.57-1.326-2.695.005-10.355 0-12.144 0-22.499 0-.102 0-.205.005-.307a2.92 2.92 0 01.743-1.852c.65-.736 1.482-1.062 2.453-1.062h26.29c.083 0 .165 0 .248.005.87.063 1.608.41 2.172 1.077.515.604.729 1.32.729 2.115-.01 10.394-.01 12.216-.01 22.6 0 .098 0 .195-.005.288-.068 1.584-1.36 2.885-2.935 2.948-.408.015-.816 0-1.21 0 .02.59.05 1.16.059 1.725.01.566 0 1.136 0 1.72.282 0 .593-.004.904 0a6.64 6.64 0 002.657-.497 6.515 6.515 0 003.027-2.529c.734-1.125 1.045-2.378 1.045-3.718V7.51zM20.15 25.862c-5.014-.01-9.105 4.079-9.11 9.113-.005 5.029 4.076 9.127 9.095 9.127 5.004 0 9.1-4.133 9.095-9.18-.005-5.005-4.052-9.05-9.08-9.06zm4.654 7.612c-.068.224-.2.453-.36.619-1.462 1.486-2.939 2.962-4.411 4.434-.743.74-1.662.736-2.41-.005a407.861 407.861 0 01-2.045-2.051c-.515-.517-.656-1.214-.384-1.837a1.564 1.564 0 012.08-.78c.199.093.383.234.539.385.34.326.66.672.996 1.023l.18-.17c1.02-1.019 2.045-2.027 3.05-3.056.56-.575 1.434-.619 1.988-.287.675.4.986 1.043.777 1.725zm4.32-23.81H11.292c-.165 0-.33.01-.495.03-1.21.14-1.832 1.437-1.331 2.485.34.706.937.989 1.695.989h17.85c.103 0 .205 0 .307-.01 1.438-.141 1.91-1.627 1.414-2.577-.33-.644-.9-.917-1.609-.917zm.024 8.582h-17.85c-.151 0-.307.01-.457.024-1.22.112-1.88 1.418-1.37 2.485.325.683.898.985 1.642.985h17.218c.306 0 .613.01.919-.005 1.117-.049 1.87-1.024 1.632-2.188-.17-.804-.865-1.301-1.734-1.301z"/></svg><svg viewBox="0 0 45 34" id="email" xmlns="http://www.w3.org/2000/svg"><path d="M44.563 16.332V6.5c0-.363-.022-.691-.07-1.003-.193-1.318-.792-2.458-1.783-3.396C41.551 1.004 40.112.447 38.432.447H6.264a8.34 8.34 0 00-1.042.065c-1.37.172-2.56.769-3.538 1.776C.581 3.424.021 4.833.021 6.47V27.926c0 .847.151 1.638.453 2.36a5.863 5.863 0 002.253 2.696c1 .648 2.163.98 3.455.98h.01c3.946-.004 7.957-.004 11.834-.004H38.42c.883 0 1.667-.142 2.4-.44a5.987 5.987 0 002.748-2.221c.66-.977.996-2.122.996-3.41V16.332zm-4.158 13.435a2.484 2.484 0 01-1.728.786c-.082.005-.168.005-.25.005h-7.531c-8.113 0-16.497 0-24.748.004-.754 0-1.366-.225-1.87-.692-.491-.453-.75-1.006-.788-1.69-.005-.077-.005-.159-.005-.241v-5.501c0-5.229 0-10.635-.004-15.954 0-.74.228-1.34.694-1.833.452-.475 1-.734 1.676-.786a3.46 3.46 0 01.22-.009h20.232c3.977 0 8.087 0 12.129-.004h.004c.745 0 1.353.225 1.861.683.474.432.737.972.802 1.646.008.07.004.151.004.238v5.816c0 5.147 0 10.47.004 15.708-.004.743-.233 1.34-.702 1.824zm-6.618-9.749l-2.779-2.813 1.702-1.72 6.54-6.616c.1-.1.181-.194.254-.29.293-.38.401-.881.285-1.374a1.67 1.67 0 00-.858-1.119c-.74-.376-1.516-.238-2.128.385L33.71 9.599c-3.473 3.514-7.066 7.148-10.6 10.717-.254.26-.53.497-.818.752-.013.013-.026.022-.043.035L7.84 6.518c-.09-.09-.19-.186-.301-.276a1.731 1.731 0 00-1.595-.281c-.547.173-.965.6-1.12 1.14-.125.441-.142 1.103.5 1.746l2.689 2.719c1.857 1.875 3.713 3.755 5.57 5.63l-2.58 2.615c-1.72 1.737-3.434 3.474-5.149 5.215l-.164.165c-.176.177-.357.354-.525.553a1.664 1.664 0 00.043 2.22 1.738 1.738 0 002.223.273c.155-.1.28-.22.383-.324 1.771-1.793 3.542-3.582 5.313-5.376l2.83-2.865c.246.216.479.424.698.644.88.882 1.771 1.785 2.633 2.658.569.579 1.142 1.158 1.715 1.733.366.367.827.57 1.297.57.474 0 .934-.207 1.305-.58l.259-.258.193.22-.125-.29 1.556-1.577c1.038-1.05 2.077-2.1 3.11-3.154l5.046 5.099c.301.302.603.61.905.912.745.756 1.516 1.534 2.279 2.303a1.849 1.849 0 001.534.553c.53-.07.99-.389 1.266-.873.384-.683.259-1.452-.344-2.061-1.836-1.845-3.667-3.7-5.498-5.553z"/></svg><svg viewBox="0 0 39 32" id="facebook" xmlns="http://www.w3.org/2000/svg"><path fill-rule="evenodd" clip-rule="evenodd" d="M22.334 32h-6.89V15.998H12v-5.515h3.444V7.175C15.444 2.677 17.386 0 22.91 0h4.598v5.515h-2.876c-2.149 0-2.291.769-2.291 2.21l-.011 2.758h5.207l-.61 5.515H22.33L22.334 32z"/></svg><svg viewBox="0 0 44 49" id="faq" xmlns="http://www.w3.org/2000/svg"><path d="M40.682 2.735C38.874 1.079 36.73.225 34.28.208 30.235.18 26.19.202 22.15.202c-3.948 0-7.901.006-11.849 0-2.362-.01-4.48.681-6.299 2.19C1.7 4.303.423 6.776.406 9.782.363 16.227.385 22.675.401 29.123c0 .692.076 1.395.217 2.07.456 2.206 1.58 4.03 3.296 5.474a9.394 9.394 0 004.263 2.058c.234.05.315.126.315.382-.01 2.587-.01 5.174 0 7.76 0 .3.054.627.174.9.467 1.067 1.661 1.16 2.438.587 1.347-.99 2.704-1.966 4.045-2.968 2.34-1.748 4.828-3.235 7.543-4.313 2.96-1.177 6.022-1.901 9.199-2.113 1.026-.071 2.058-.05 3.079-.137 2.242-.185 4.208-1.056 5.843-2.608 2.074-1.972 3.1-4.412 3.106-7.271.01-6.274.01-12.549 0-18.823-.006-2.925-1.075-5.408-3.237-7.385zM40.7 28.98c0 2.042-.744 3.752-2.286 5.092-1.108.964-2.411 1.482-3.883 1.563-1.385.077-2.775.115-4.154.245-2.216.207-4.377.703-6.495 1.373-3.692 1.17-7.08 2.93-10.203 5.223-.554.403-1.113.806-1.667 1.204-.065.049-.136.087-.245.158v-.316-6.138c0-.855-.407-1.427-1.183-1.667a2.52 2.52 0 00-.609-.082c-2.438-.125-4.262-1.274-5.495-3.36-.592-1.002-.82-2.124-.82-3.284 0-6.28-.005-12.565 0-18.845 0-1.764.56-3.327 1.787-4.613C6.673 4.25 8.177 3.546 9.964 3.497c.803-.021 1.612-.01 2.416-.01 7.206 0 14.412.005 21.618-.006 1.33-.005 2.568.305 3.681 1.03 1.597 1.034 2.59 2.5 2.916 4.39.087.495.109 1.007.109 1.513 0 6.193-.005 12.38-.005 18.567zm-14.96-17.2c-1.32-1.073-2.84-1.427-4.508-1.187-1.336.196-2.47.768-3.34 1.83-.77.937-1.074 2.042-1.074 3.23 0 .67.342 1.187.96 1.46.527.239 1.054.184 1.537-.148.51-.348.7-.86.723-1.46.021-.593.277-1.067.809-1.34.31-.152.651-.282.988-.32.83-.093 1.591.087 2.129.795.31.408.293.898.287 1.383-.005.703-.325 1.236-.912 1.601-.472.289-.966.55-1.455.817-.625.338-1.092.817-1.255 1.52-.097.414-.092.85-.13 1.274.017 0 .033 0 .044.006 0 .294-.017.582.005.877.049.724.668 1.34 1.423 1.432.706.087 1.477-.381 1.656-1.068.098-.364.087-.762.109-1.143.005-.137.043-.218.168-.278.255-.12.51-.245.76-.381 1.428-.757 2.335-1.918 2.683-3.513.152-.703.163-1.416.092-2.124-.13-1.313-.673-2.424-1.7-3.263zM22.17 25.397c-1.173-.005-1.982.823-1.993 2.043-.011 1.181.793 2.042 1.933 2.053 1.173.01 1.987-.812 2.004-2.032.01-1.192-.804-2.058-1.944-2.064z"/></svg><svg viewBox="0 0 45 36" id="house" xmlns="http://www.w3.org/2000/svg"><path d="M37.946 16.391c-.102-1.021-1.074-1.678-2.036-1.373-.685.214-1.113.815-1.113 1.583-.004 1.408 0 2.815 0 4.223v9.883c0 .395-.094.764-.342 1.077-.35.438-.813.613-1.37.61-1.462-.01-2.93-.005-4.393-.005-.064 0-.133-.004-.218-.009v-.27c0-2.489.004-4.974-.005-7.463 0-.446-.034-.892-.111-1.33a6.107 6.107 0 00-1.579-3.163c-1.078-1.158-2.404-1.828-3.97-1.995a6.124 6.124 0 00-4.129 1.009 6.25 6.25 0 00-2.417 3.003c-.308.79-.433 1.614-.433 2.455v7.75c-.064.004-.094.013-.124.013-1.518 0-3.042.008-4.56-.004a1.868 1.868 0 01-.732-.16c-.638-.3-.903-.849-.907-1.536V16.697c0-.15 0-.3-.03-.447-.116-.592-.458-1.025-1.031-1.205-1.121-.352-2.097.386-2.097 1.575-.004 4.707 0 9.415 0 14.126 0 .67.099 1.33.385 1.936.877 1.862 2.354 2.87 4.412 2.88 7.341.02 14.688.008 22.03.008 1.18 0 2.237-.37 3.132-1.15 1.125-.983 1.66-2.236 1.66-3.73-.005-4.673 0-9.341 0-14.015-.013-.094-.013-.189-.022-.283zm-12.639 15.99h-6.31c-.005-.065-.009-.13-.009-.194 0-2.549-.004-5.098 0-7.651.004-1.566.954-2.794 2.443-3.163 1.763-.438 3.598.816 3.834 2.614.025.188.038.382.038.575.004 2.536 0 5.076 0 7.612v.206h.004zm18.937-19.337c-.102-.562-.47-.918-.958-1.18C36.539 8.224 29.79 4.582 23.048.93c-.616-.335-1.198-.33-1.81.004-4.436 2.403-8.877 4.798-13.314 7.196L.94 11.902c-.573.31-.898.777-.92 1.314 0 .78.39 1.373.993 1.609.505.197.993.12 1.463-.137C8.981 11.172 15.48 7.657 21.983 4.14c.116-.065.201-.073.32-.009 4.947 2.678 9.893 5.347 14.839 8.02 1.579.854 3.153 1.708 4.732 2.558.612.33 1.215.318 1.776-.103.517-.386.71-.927.594-1.562z"/></svg><svg viewBox="0 0 38 32" id="inst" xmlns="http://www.w3.org/2000/svg"><path fill-rule="evenodd" clip-rule="evenodd" d="M21.899 2.881c4.244 0 4.747.018 6.425.094 1.549.072 2.391.33 2.952.55.742.29 1.27.635 1.827 1.196.557.56.9 1.092 1.189 1.84.218.563.478 1.411.546 2.97.075 1.689.093 2.192.093 6.467 0 4.272-.018 4.778-.093 6.463-.071 1.56-.328 2.408-.546 2.972a4.961 4.961 0 01-1.189 1.839 4.924 4.924 0 01-1.827 1.196c-.56.22-1.403.482-2.952.55-1.678.08-2.178.093-6.425.093-4.245 0-4.748-.014-6.426-.093-1.549-.072-2.391-.33-2.952-.55a4.924 4.924 0 01-1.827-1.196 4.961 4.961 0 01-1.189-1.84c-.217-.563-.478-1.411-.546-2.97-.075-1.69-.093-2.192-.093-6.464 0-4.271.015-4.778.093-6.467.072-1.559.329-2.407.546-2.97a4.962 4.962 0 011.189-1.84 4.924 4.924 0 011.827-1.197c.56-.219 1.403-.477 2.952-.55 1.678-.075 2.181-.093 6.426-.093zm0-2.881c-4.316 0-4.858.018-6.554.097-1.692.079-2.849.348-3.859.744A7.827 7.827 0 008.67 2.684a7.852 7.852 0 00-1.835 2.834c-.392 1.017-.66 2.181-.739 3.884C6.018 11.109 6 11.655 6 15.998c0 4.344.018 4.89.096 6.596.079 1.703.347 2.867.74 3.884a7.852 7.852 0 001.834 2.835 7.79 7.79 0 002.816 1.846c1.01.396 2.167.665 3.859.744 1.696.079 2.238.097 6.554.097 4.315 0 4.858-.018 6.553-.097 1.692-.075 2.849-.348 3.859-.744a7.791 7.791 0 002.816-1.846 7.852 7.852 0 001.835-2.835c.393-1.017.66-2.18.739-3.884.078-1.706.096-2.252.096-6.596 0-4.347-.018-4.89-.096-6.596-.079-1.703-.346-2.867-.739-3.884a7.852 7.852 0 00-1.835-2.834A7.791 7.791 0 0032.311.837C31.3.442 30.144.172 28.452.093 26.757.018 26.218 0 21.9 0zm.032 7.81c-4.512 0-8.17 3.683-8.17 8.224s3.658 8.224 8.17 8.224c4.512 0 8.17-3.683 8.17-8.224s-3.658-8.224-8.17-8.224zm0 13.56c-2.927 0-5.305-2.39-5.305-5.34 0-2.95 2.374-5.338 5.305-5.338 2.927 0 5.304 2.389 5.304 5.338 0 2.95-2.374 5.34-5.304 5.34zM32.247 7.43a1.897 1.897 0 01-1.892 1.904 1.897 1.897 0 01-1.892-1.904c0-1.053.846-1.904 1.892-1.904a1.897 1.897 0 011.892 1.904z"/></svg><svg viewBox="0 0 39 50" id="medal" xmlns="http://www.w3.org/2000/svg"><path d="M37.68 14.572c-1.2-4.068-3.492-7.385-6.864-9.94C28.15 2.617 25.147 1.408 21.84.983a18.922 18.922 0 00-5.734.142 18.696 18.696 0 00-6.842 2.663 18.768 18.768 0 00-6.696 7.315C.874 14.37.195 17.85.494 21.516c.174 2.146.717 4.194 1.585 6.16.05.109.071.234.071.354.005 2.396.005 4.798.005 7.2v6.966c0 .97.218 1.89.728 2.712 1.08 1.743 2.66 2.587 4.703 2.538.874-.022 1.678-.305 2.438-.719.505-.272 1.02-.294 1.553-.081 1.89.762 3.78 1.514 5.67 2.27 1.427.573 2.855.556 4.278-.01 1.895-.757 3.79-1.525 5.686-2.282.179-.071.369-.13.559-.158.38-.06.733.027 1.07.207.874.474 1.802.762 2.807.724 1.499-.049 2.759-.632 3.752-1.748.89-.997 1.309-2.19 1.309-3.535-.005-4.684 0-9.362 0-14.046 0-.152.033-.31.092-.447a19.126 19.126 0 001.608-6.71 18.54 18.54 0 00-.728-6.339zM33.249 42.19c0 .997-.646 1.716-1.624 1.803-.347.033-.678-.065-.988-.234-.614-.338-1.254-.583-1.95-.692-.977-.158-1.91-.01-2.818.354-1.868.746-3.73 1.498-5.587 2.255a2.13 2.13 0 01-1.695 0c-1.862-.762-3.725-1.509-5.587-2.255-1.532-.615-3.036-.539-4.513.202-.304.152-.63.3-.956.348-.944.148-1.84-.61-1.906-1.568-.005-.093-.005-.18-.005-.273V32.986c3.823 3.889 8.411 5.942 13.82 5.942 5.408 0 9.997-2.053 13.803-5.926.006.071.017.126.017.18-.011 3.001-.011 6.008-.011 9.008zm-13.83-6.72c-8.515-.055-15.537-7.01-15.428-15.795.103-8.474 6.956-15.337 15.476-15.38 8.737.016 15.628 7.031 15.607 15.603A15.544 15.544 0 0119.418 35.47zm9.133-20.206c-.63-.512-1.363-.73-2.167-.736-.907 0-1.814-.005-2.726 0-.141 0-.206-.038-.244-.18-.13-.44-.266-.882-.413-1.317-.228-.676-.413-1.373-.722-2.01-.505-1.046-1.38-1.64-2.536-1.76-1.02-.103-1.9.23-2.623.965-.412.42-.684.926-.863 1.487-.283.882-.56 1.77-.826 2.658-.038.13-.097.168-.228.168-.912-.01-1.83-.016-2.742-.016-1.499 0-2.748.871-3.204 2.238-.478 1.422-.054 2.903 1.108 3.846.815.659 1.63 1.307 2.454 1.955.104.081.125.152.082.278-.299.947-.587 1.895-.88 2.843a3.483 3.483 0 00.217 2.668c.657 1.324 2.113 2.043 3.53 1.765.603-.12 1.102-.436 1.58-.8.684-.524 1.38-1.03 2.08-1.547.07.049.136.092.196.141.744.55 1.487 1.111 2.231 1.661 1.113.812 2.656.8 3.763-.027a3.48 3.48 0 001.228-3.845 277.91 277.91 0 00-.913-2.794c-.048-.147-.038-.24.098-.343.592-.458 1.178-.92 1.76-1.389.494-.398 1.02-.752 1.395-1.29 1.01-1.444.739-3.503-.635-4.62zm-3.34 3.545l-1.417 1.128a3.479 3.479 0 00-1.157 3.834c.283.882.57 1.764.875 2.696-.087-.06-.136-.087-.18-.125a556.01 556.01 0 00-1.878-1.455c-1.228-.942-2.824-.942-4.057 0-.651.502-1.303 1.008-1.993 1.542.033-.104.05-.17.065-.234.283-.959.609-1.907.842-2.876.234-.964-.016-1.868-.586-2.68-.386-.55-.94-.91-1.445-1.323-.478-.392-.961-.768-1.444-1.155-.05-.038-.093-.082-.19-.163h.277c.928-.006 1.857.016 2.78-.022 1.309-.054 2.454-.931 2.878-2.173.266-.779.505-1.569.755-2.358.021-.06.043-.12.06-.18.016 0 .027 0 .043-.006l.326 1.014c.14.452.282.904.429 1.356.483 1.486 1.683 2.363 3.241 2.369.831.005 1.662 0 2.488 0h.206c.005.016.01.032.016.043-.304.262-.619.512-.934.768z"/></svg><svg viewBox="0 0 44 39" id="news" xmlns="http://www.w3.org/2000/svg"><path d="M43.72 5.801a5.39 5.39 0 00-.06-.871 4.564 4.564 0 00-1.47-2.714c-.992-.902-2.187-1.322-3.548-1.322h-20.51c-.346 0-.689.004-1.035.025a4.804 4.804 0 00-3.228 1.473c-.92.936-1.353 2.065-1.353 3.353v9.411H5.92c-.659 0-1.301.09-1.913.336-1.366.536-2.307 1.468-2.83 2.795-.252.64-.304 1.305-.304 1.98.005 3.503 0 7.006.009 10.51 0 .455.021.918.09 1.37.312 2.039 1.305 3.722 2.966 5.023 1.537 1.202 3.314 1.764 5.291 1.76 6.323-.004 9.517 0 15.84 0H38.68c1.237 0 2.345-.356 3.287-1.133 1.199-.984 1.76-2.255 1.755-3.774-.004-9.403 0-18.81-.004-28.222zM11.317 34.104c-.792.88-1.773 1.408-2.916 1.58-1.845-.253-3.142-1.254-3.891-2.937-.261-.588-.351-1.21-.351-1.846-.004-3.624.004-7.243-.004-10.867-.005-.992.745-1.709 1.746-1.709 3.194.005 3.254 0 6.447 0h.176V30.91c-.005 1.206-.386 2.284-1.207 3.194zm28.463 1.331c-.253.18-.535.292-.848.318-.09.008-.184.008-.278.008H14.139c.18-.266.35-.506.505-.75.8-1.28 1.164-2.676 1.164-4.166V5.81c0-.58.18-1.078.677-1.43.325-.232.697-.31 1.095-.31h21.101c.719 0 1.292.276 1.592.924.116.245.158.54.163.811.008 4.783.008 9.566.008 14.35V34.04c0 .566-.18 1.047-.663 1.395zM22.45 19.914h5.142c.45 0 .9.009 1.349 0 1.121-.022 2.02-.472 2.68-1.348.432-.571.603-1.228.603-1.932v-5.96c0-.184-.008-.369-.021-.554-.124-1.571-1.494-2.855-3.13-2.876-2.256-.026-4.512-.013-6.768-.005-.265 0-.539.048-.8.112-1.344.335-2.363 1.529-2.402 2.864-.034 1.116-.008 2.237-.008 3.353h-.013v3.07c0 .696.171 1.348.6 1.915.684.906 1.609 1.361 2.769 1.361zm-.063-9.497h6.54v6.316h-6.54v-6.316zm11.455 12.67h-7.932c-1.725 0-3.45-.004-5.176 0-1.091.004-1.866.979-1.588 1.992.197.717.844 1.177 1.674 1.177H33.89c1.01-.04 1.725-.83 1.61-1.787-.099-.798-.792-1.378-1.657-1.382zm-6.64 6.333h-6.25c-.128 0-.256.004-.385.017-.963.082-1.648.988-1.438 1.898.175.755.81 1.25 1.64 1.254 1.083.008 2.17.004 3.253.004v-.005c1.122 0 2.243.018 3.365-.004 1.126-.026 1.866-1.172 1.434-2.177-.27-.622-.87-.987-1.618-.987z"/></svg><svg viewBox="0 0 40 32" id="telegram" xmlns="http://www.w3.org/2000/svg"><path fill-rule="evenodd" clip-rule="evenodd" d="M34.112 1.34l-4.735 27.427c-.063.345-.257.614-.592.804a1.151 1.151 0 01-.575.144c-.134 0-.283-.029-.443-.09l-8.374-3.305-4.474 5.267c-.223.273-.521.41-.905.41-.16 0-.295-.026-.407-.072a1.14 1.14 0 01-.563-.42 1.09 1.09 0 01-.212-.651v-6.23L28.807 5.712 9.044 22.232 1.74 19.338c-.454-.168-.7-.495-.738-.98-.026-.478.172-.827.593-1.053L32.356.162c.183-.108.38-.162.59-.162.245 0 .469.065.663.198.41.283.578.664.503 1.142z"/></svg><svg viewBox="0 0 38 32" id="tiktok" xmlns="http://www.w3.org/2000/svg"><path d="M16.131 11.856v5.605c-.046-.011-.086-.018-.125-.03a4.638 4.638 0 00-1.706-.154 4.587 4.587 0 00-2.538 1.06c-.871.73-1.414 1.65-1.61 2.763-.343 1.976.639 3.934 2.43 4.868.73.38 1.51.557 2.332.532 2.13-.065 3.983-1.613 4.405-3.686.064-.317.096-.633.096-.956v-7.027c0-2.749 0-5.497.004-8.245 0-2.138 0-4.276.003-6.413V.022c.104-.022 5.365-.033 5.561-.007.043 2.09.779 3.905 2.274 5.389 1.5 1.483 3.33 2.216 5.454 2.256v5.5c-2.827-.021-5.393-.837-7.72-2.457v.172c0 3.668.007 7.337-.004 11.001-.007 2.414-.785 4.566-2.338 6.427-1.503 1.807-3.427 2.96-5.736 3.467-.928.205-1.87.27-2.82.205-4.409-.277-8.142-3.341-9.249-7.573a9.92 9.92 0 01-.314-2.936c.19-4.419 3.238-8.202 7.546-9.366a10.32 10.32 0 013.18-.337c.272.014.543.05.81.075.019.004.036.01.065.018z"/></svg><svg viewBox="0 0 37 32" id="twitter" xmlns="http://www.w3.org/2000/svg"><path fill-rule="evenodd" clip-rule="evenodd" d="M32.722 5.058c1.57-.998 2.777-2.583 3.344-4.469a14.62 14.62 0 01-4.833 1.962C29.848.98 27.871 0 25.68 0c-4.201 0-7.607 3.618-7.607 8.076 0 .633.065 1.25.193 1.84-6.322-.338-11.926-3.55-15.684-8.44A8.46 8.46 0 001.553 5.54c0 2.802 1.342 5.274 3.384 6.725a7.336 7.336 0 01-3.449-1.01v.101c0 3.917 2.62 7.182 6.108 7.922-.64.19-1.31.284-2.006.284-.49 0-.968-.047-1.432-.144.968 3.209 3.777 5.547 7.107 5.609-2.605 2.166-5.886 3.456-9.452 3.456-.614 0-1.22-.036-1.817-.112C3.366 30.66 7.364 32 11.661 32c14 0 21.65-12.308 21.65-22.982 0-.352-.004-.701-.018-1.046A15.944 15.944 0 0037.09 3.79a14.564 14.564 0 01-4.37 1.268z"/></svg><svg viewBox="0 0 37 32" id="vk" xmlns="http://www.w3.org/2000/svg"><path d="M36.341 24.024c-.1-.162-.703-1.459-3.616-4.124-3.052-2.788-2.641-2.34 1.032-7.164 2.238-2.939 3.13-4.732 2.852-5.5-.264-.733-1.91-.54-1.91-.54l-5.472.033s-.407-.054-.707.122c-.292.172-.485.578-.485.578s-.864 2.275-2.02 4.207c-2.438 4.082-3.413 4.297-3.813 4.042-.928-.593-.696-2.375-.696-3.64 0-3.955.61-5.604-1.185-6.028-.596-.143-1.031-.233-2.556-.251-1.952-.018-3.605.007-4.543.46-.625.302-1.104.97-.81 1.01.36.046 1.18.215 1.613.8.56.755.542 2.444.542 2.444s.322 4.656-.753 5.23c-.739.396-1.749-.413-3.923-4.113C8.781 9.7 7.94 7.602 7.94 7.602s-.161-.392-.454-.604c-.35-.255-.839-.334-.839-.334l-5.2.036s-.782.022-1.068.356c-.257.298-.021.912-.021.912S4.43 17.36 9.042 22.095c4.23 4.34 9.03 4.056 9.03 4.056h2.178s.657-.072.992-.428c.307-.327.296-.94.296-.94s-.039-2.879 1.314-3.303c1.335-.416 3.052 2.781 4.869 4.013 1.374.931 2.416.726 2.416.726L35 26.151c.004 0 2.549-.155 1.342-2.127z"/></svg></svg>