<svg width="67" height="90" viewBox="0 0 67 90" fill="none" xmlns="http://www.w3.org/2000/svg"><g clip-path="url(#clip0_2_369)"><path d="M24.24 55.71c.39 1.35.97 2.61 1.84 3.68 1.45 1.84 3.98 3.58 8.34 3.58 5.43 0 7.27-1.94 7.27-3.87 0-3.19-5.53-4.65-12.6-6.39C17.45 49.9 1.94 45.74 1.94 30.05c0-9.29 7.76-17.33 21.81-20.33V.04h19.87v10.17c9.21 2.42 14.54 7.74 17.55 12.49 1.75 2.81 3.01 5.71 3.78 8.81H40.72c-.19-.97-.58-1.84-1.26-2.61-1.07-1.45-2.91-2.71-6.01-2.71-4.65 0-6.3 1.55-6.3 3.39 0 2.32 4.46 3.29 10.37 4.55 11.63 2.61 29.38 6.29 29.38 23.04 0 10.07-7.76 19.94-23.27 22.27v9.68H23.75V78.94C13.28 76.52 7.46 70.81 4.07 65.49 2.13 62.39.77 59.1 0 55.71h24.24z" fill="#FFB62C"/></g><defs><clipPath id="clip0_2_369"><path fill="#fff" transform="translate(0 .04)" d="M0 0h66.9v89.07H0z"/></clipPath></defs></svg>