<svg width="171" height="67" viewBox="0 0 171 67" fill="none" xmlns="http://www.w3.org/2000/svg"><path d="M104.4 57.775c.5-.584.7-1.266.7-2.045 0-.78-.2-1.364-.5-1.948-.3-.585-.8-.974-1.4-1.17-.6-.194-1.6-.389-2.9-.389h-2.5v11.98h2.4v-5.065c1.2 0 2-.097 2.5-.194.6-.195 1.2-.585 1.7-1.17zm-1.8-1.364c-.1.195-.3.292-.5.39-.2.097-.6.097-1.2.097h-.7v-2.435h.7c.7 0 1.2.098 1.5.195.4.195.6.584.6.974-.2.292-.3.585-.4.78zm5.8-4.188l-4.8 11.98h2.4l1-2.435h5l1 2.435h2.4l-4.6-11.98h-2.4zm-.5 7.305l1.7-4.09 1.6 4.09h-3.3zm15.5-1.85c.4-.487.6-1.17.6-1.948 0-.78-.2-1.364-.5-1.948-.3-.585-.8-.974-1.4-1.17-.6-.194-1.5-.389-2.9-.389h-2.5v11.98h2.3v-5.065h.2l2.8 5.065h2.6l-2.9-5.357c.7-.195 1.3-.682 1.7-1.168zm-2.1-1.072c-.3.195-.8.292-1.5.292h-.8v-2.435h.6c.6 0 1.1 0 1.3.098.2.097.4.194.6.39.1.194.2.389.2.681 0 .487-.1.78-.4.974zm4.3-2.143h2.1v9.74h2.4v-9.74h2.3v-2.24h-6.8v2.24zm15.8 5.649l-5.3-7.889h-2.3v11.98h2.4v-7.89l5.3 7.89h2.2v-11.98h-2.3v7.89zm4 4.091h6.7v-2.24h-4.4v-3.117h4.4v-2.24h-4.4v-2.143h4.4v-2.24h-6.7v11.98zm15.1-6.525c.4-.487.6-1.17.6-1.948 0-.78-.2-1.364-.5-1.948-.4-.585-.8-.974-1.4-1.17-.6-.194-1.5-.389-2.9-.389h-2.5v11.98h2.4v-5.065h.2l2.8 5.065h2.6l-2.9-5.357c.7-.195 1.3-.682 1.6-1.168zm-2.1-1.072c-.3.195-.8.292-1.5.292h-.7v-2.435h.6c.6 0 1.1 0 1.3.098.2.097.4.194.6.39.1.194.2.389.2.681 0 .487-.2.78-.5.974zm9.9 1.754c-.2-.196-.7-.682-1.6-1.364-1-.78-1.5-1.267-1.7-1.559-.1-.194-.2-.39-.2-.584 0-.195.1-.39.3-.584.2-.195.4-.195.8-.195.6 0 1.3.39 1.9 1.266l1.7-1.461c-.6-.78-1.3-1.266-1.8-1.558-.6-.293-1.1-.39-1.8-.39-1 0-1.8.292-2.4.877-.7.584-1 1.266-1 2.142 0 .585.2 1.17.6 1.753.4.585 1.3 1.364 2.6 2.435.7.585 1.2.974 1.4 1.267.2.292.3.584.3.779 0 .292-.1.584-.4.779-.3.195-.6.39-1 .39-.8 0-1.5-.487-2.1-1.559l-2 1.169c.5.877 1 1.558 1.7 1.948.7.39 1.4.584 2.3.584 1.1 0 2-.292 2.7-.974.7-.681 1.1-1.46 1.1-2.435 0-.487-.1-.974-.3-1.363-.2-.39-.6-.877-1.1-1.364zM169.5.994h-34.1v9.35h12.5v11.007c-1.5.097-2.7 1.363-2.7 2.824 0 1.461 1.2 2.727 2.7 2.825h.1v20.356h9.6V27.097h.1c1.5-.097 2.7-1.364 2.7-2.825 0-1.46-1.2-2.727-2.7-2.824V10.344h12.5V.994h-.7zM97.7 46.966v.487h9.6V29.824h11.6v-9.253h-11.6V10.344h19.8V.994H97.6v20.357c-1.4.194-2.5 1.363-2.5 2.824 0 1.461 1.1 2.63 2.5 2.825l.1.097v19.869zM59.8 58.167c-9.2 0-15.2-4.772-21.7-9.837-4.6-3.701-9.4-7.402-15.2-8.766V27c1.5-.098 2.7-1.364 2.7-2.825s-1.2-2.727-2.7-2.825V.995H4.6v9.35h8.8v11.007c-1.5.097-2.7 1.363-2.7 2.824 0 1.461 1.2 2.727 2.7 2.825h.1V39.37C5 41.025 1.5 46.772 0 51.642l8.5 2.337c1.3-4.578 4.2-6.428 9.9-6.428 4.8 0 9.1 3.409 14.1 7.402 6.7 5.26 14.9 11.785 27.2 11.785 17 0 26.6-10.616 27-11.103l-6.7-5.65c-.1.39-7.4 8.182-20.2 8.182z" fill="#FFB62C"/><path d="M36.4 26.9c1.4 11.687 11.6 20.843 24 20.843s22.6-9.058 24-20.844c1.4-.194 2.4-1.363 2.4-2.824 0-1.364-1-2.532-2.4-2.825C82.9 9.66 72.7.7 60.4.7s-22.5 9.057-24 20.648c-1.3.292-2.3 1.46-2.3 2.824 0 1.364 1 2.435 2.3 2.727zm24-16.85c7 0 12.9 4.87 14.2 11.298-1.3.292-2.4 1.363-2.4 2.824 0 1.364 1 2.533 2.4 2.825-1.3 6.526-7.2 11.395-14.2 11.395-7.1 0-12.9-4.87-14.2-11.395 1.4-.195 2.5-1.364 2.5-2.825 0-1.363-1.1-2.532-2.4-2.824 1.2-6.428 7.1-11.298 14.1-11.298zm34.8 52.01h-2.3v2.274h2.3V62.06z" fill="#FFB62C"/></svg>