<svg width="102" height="88" viewBox="0 0 102 88" fill="none" xmlns="http://www.w3.org/2000/svg"><path d="M23.01 0c13.56 0 23.01 8.951 23.01 20.57 0 11.62-9.45 20.571-23.01 20.571C9.45 41.141 0 32.191 0 20.571 0 8.96 9.45 0 23.01 0zm44.16 1.217h19.9L34.83 85.906h-19.9L67.17 1.217zM23.01 26.015c3.11 0 5.6-2.415 5.6-5.444 0-3.03-2.49-5.445-5.6-5.445-3.11 0-5.6 2.415-5.6 5.445 0 3.029 2.49 5.444 5.6 5.444zm55.98 19.967c13.56 0 23.01 8.951 23.01 20.57 0 11.62-9.45 20.571-23.01 20.571-13.56 0-23.01-8.95-23.01-20.57 0-11.62 9.45-20.571 23.01-20.571zm0 26.015c3.11 0 5.6-2.415 5.6-5.444 0-3.03-2.49-5.445-5.6-5.445-3.11 0-5.6 2.416-5.6 5.445 0 3.029 2.49 5.444 5.6 5.444z" fill="#FFB62C"/></svg>