<svg width="176" height="175" viewBox="0 0 176 175" fill="none" xmlns="http://www.w3.org/2000/svg"><path d="M87.7 149.412c-34.23 0-62.076-27.831-62.076-62.042S53.47 25.328 87.7 25.328c34.229 0 62.075 27.83 62.075 62.042 0 34.211-27.846 62.042-62.075 62.042zm0-122.321c-33.26 0-60.312 27.037-60.312 60.28 0 33.241 27.052 60.279 60.312 60.279 33.259 0 60.311-27.038 60.311-60.28 0-33.242-27.052-60.28-60.311-60.28z" fill="#FFB62C"/><path d="M87.752 142.027H87.7c-3.563 0-7.143-.352-10.6-1.022l.336-1.727c3.368.652 6.807.987 10.264.987l.052 1.762zm10.67-1.057l-.335-1.728a53.183 53.183 0 009.928-3.014l.67 1.622a53.867 53.867 0 01-10.263 3.12zm-31.585-3.067a55.267 55.267 0 01-9.452-5.041l.97-1.463a53.034 53.034 0 009.152 4.882l-.67 1.622zm51.283-5.112l-.988-1.463a53.07 53.07 0 008.007-6.592l1.252 1.252a53.548 53.548 0 01-8.271 6.803zm-69.024-6.715a53.52 53.52 0 01-6.807-8.266l1.464-.987a53.047 53.047 0 006.596 8.002l-1.252 1.251zm84.102-8.355l-1.464-.987a52.828 52.828 0 004.885-9.13l1.623.67a55.211 55.211 0 01-5.044 9.447zM37.21 108.38a53.232 53.232 0 01-3.12-10.24l1.727-.353a51.027 51.027 0 003.034 9.905l-1.64.688zm104.135-10.364l-1.728-.335a52.963 52.963 0 001.005-10.31v-.23h1.764v.212a55.05 55.05 0 01-1.041 10.663zM33.013 87.476v-.106c0-3.543.335-7.085 1.023-10.54l1.728.335a53.244 53.244 0 00-.987 10.205l-1.764.106zM139.582 76.83a52.777 52.777 0 00-3.051-9.906l1.622-.687a55.901 55.901 0 013.157 10.24l-1.728.353zM38.745 67.242l-1.623-.67a53.4 53.4 0 015.044-9.447l1.464.969a52.981 52.981 0 00-4.885 9.148zm92.848-9.43a54.133 54.133 0 00-6.613-7.984l1.234-1.252a54.529 54.529 0 016.825 8.249l-1.446.987zM50.19 50.057l-1.252-1.252a55.445 55.445 0 018.253-6.82l.987 1.48a52.927 52.927 0 00-7.988 6.592zm66.766-6.786a53.58 53.58 0 00-9.153-4.865l.671-1.621a55.4 55.4 0 019.47 5.023l-.988 1.463zm-49.642-4.724l-.688-1.621a54.623 54.623 0 0110.246-3.138l.352 1.728a51.112 51.112 0 00-9.91 3.031zm30.543-3.102a52.772 52.772 0 00-10.157-.97l-.177-1.762h.177a54.8 54.8 0 0110.475 1.005l-.318 1.727zM87.7 107.217c-10.952 0-19.875-8.901-19.875-19.864 0-10.946 8.906-19.847 19.875-19.847s19.874 8.901 19.874 19.847c0 10.963-8.923 19.864-19.874 19.864zm0-37.948c-9.982 0-18.112 8.107-18.112 18.084 0 9.976 8.113 18.101 18.112 18.101 9.999 0 18.111-8.125 18.111-18.101 0-9.977-8.13-18.084-18.111-18.084zm16.259-48.048a6.354 6.354 0 01-6.349-6.345c0-3.508 2.857-6.345 6.349-6.345s6.349 2.855 6.349 6.345a6.343 6.343 0 01-6.349 6.345zm0-10.945a4.586 4.586 0 00-4.585 4.582 4.586 4.586 0 004.585 4.583 4.597 4.597 0 004.585-4.583 4.586 4.586 0 00-4.585-4.582z" fill="#FFB62C"/><path d="M87.7 174.74C39.503 174.74.283 135.541.283 87.37.283 39.2 39.503 0 87.7 0c48.196 0 87.416 39.2 87.416 87.37 0 48.171-39.202 87.37-87.416 87.37zm0-172.977c-47.227 0-85.654 38.406-85.654 85.607 0 47.202 38.427 85.608 85.654 85.608 47.226 0 85.653-38.406 85.653-85.608 0-47.201-38.427-85.607-85.653-85.607z" fill="#FFB62C"/><path d="M125.95 86.489h-19.257v1.762h19.257V86.49zm-57.226 0H49.467v1.762h19.257V86.49zM88.581 49.14h-1.763v19.247h1.763V49.14zm0 57.195h-1.763v19.247h1.763v-19.247z" fill="#FFB62C"/><path d="M172.894 68.581h.018l-.194-.863-.194-.864h-.018c-3.068-12.743-8.323-23.53-16.488-33.77l.017-.018-.546-.688-.547-.687-.018.018c-8.341-10.1-17.793-17.503-29.627-23.143l.018-.018-.829-.37-.793-.37v.018C111.824 2.415 101.473.106 88.44.018V0h-1.763v.018C73.574.14 61.882 2.838 50.03 8.478l-.017-.018-.794.388-.794.388.018.017c-11.726 5.852-21.055 13.397-29.22 23.654l-.018-.018-.546.688-.547.687.017.018C10.16 44.68 5.08 55.556 2.24 68.352h-.017l-.177.864-.176.863h.018c-2.61 12.761-2.522 23.372.317 36.098h-.018l.194.863.194.864h.018c3.068 12.743 8.324 23.53 16.489 33.771l-.018.017.547.688.546.687.018-.018c8.341 10.1 17.794 17.503 29.627 23.143l-.018.017.794.371.793.37v-.018c11.851 5.411 22.22 7.72 35.253 7.808v.018h1.763v-.018c13.103-.123 24.813-2.82 36.646-8.46l.018.018.793-.388.794-.388-.018-.018c11.727-5.851 21.056-13.395 29.221-23.653l.018.018.547-.688.546-.687-.017-.018c7.971-10.399 13.05-21.274 15.889-34.07h.017l.177-.864.176-.864h-.017c2.645-12.778 2.557-23.389-.283-36.097zm-1.393 35.727l-23.772-5.058c-.106.581-.247 1.145-.37 1.727l23.789 5.059c-2.786 12.531-7.741 23.16-15.554 33.347l-19.186-14.981c-.353.475-.724.934-1.094 1.392l19.187 14.982c-7.989 10.046-17.124 17.431-28.604 23.16l-10.704-21.926c-.529.264-1.059.528-1.588.775l10.705 21.926c-11.586 5.517-23.031 8.161-35.87 8.284v-24.499c-.247 0-.476.017-.723.017-.352 0-.688-.017-1.04-.035v24.482c-12.768-.106-22.908-2.344-34.512-7.649l10.37-22.226c-.53-.247-1.076-.476-1.605-.741L50.56 164.57c-11.586-5.534-20.844-12.761-29.01-22.649l14.708-11.897 4.409-3.56c-.37-.459-.74-.917-1.093-1.375l-4.55 3.684-14.567 11.791C12.47 130.518 7.32 119.96 4.321 107.499l13.473-3.103 10.529-2.432a29.778 29.778 0 01-.389-1.71L3.88 105.771c-2.786-12.461-2.874-22.825-.3-35.34l24.09 5.112c.106-.581.247-1.145.37-1.727L3.95 68.705c2.787-12.532 7.743-23.16 15.555-33.348l19.38 15.14c.354-.475.724-.934 1.094-1.392l-19.398-15.14c7.988-10.047 17.123-17.432 28.604-23.16l10.757 22.05c.53-.265 1.04-.53 1.587-.794L50.772 10.029c11.586-5.517 23.031-8.16 35.87-8.284v24.482c.352 0 .687-.035 1.04-.035.247 0 .476.017.723.017V1.763c12.768.105 22.89 2.344 34.512 7.65L112.6 31.514c.529.246 1.076.476 1.605.722l10.299-22.085c11.586 5.535 20.844 12.761 29.009 22.65l-14.266 11.544-4.656 3.772 1.111 1.375 4.762-3.86 14.178-11.475c7.989 10.047 13.138 20.587 16.136 33.066l-13.649 3.155-10.035 2.309c.141.564.265 1.146.388 1.71l23.684-5.464c2.804 12.496 2.892 22.86.335 35.374z" fill="#FFB62C"/></svg>