<svg width="174" height="174" viewBox="0 0 174 174" fill="none" xmlns="http://www.w3.org/2000/svg"><path d="M90.387.088A91.416 91.416 0 0086.595 0C64.692 0 43.954 8.09 27.818 23.019 10.888 38.689 1.03 59.945.078 82.893c-.97 23.231 7.16 45.404 22.89 62.413 15.819 17.114 37.298 27.02 60.488 27.883 23.525.846 45.939-7.649 63.063-23.988 17.106-16.339 26.629-38.389 26.823-62.095.37-46.814-36.064-85.044-82.955-87.018zM64.093 4.935c14.954-4.054 30.156-4.054 45.146 0l2.945.793-2.328 1.957c-.282.247-.406.352-.547.44l-5.044 3.208c-5.431 3.455-10.88 6.927-16.312 10.382-.317.211-.74.387-1.252.387-.388 0-.829-.105-1.287-.405a5385.501 5385.501 0 00-16.736-10.646l-4.532-2.873a14.281 14.281 0 00-.406-.282l-2.786-2.08 3.139-.88zm55.056 73.658l-6.401 19.705a6087.8 6087.8 0 00-5.467 16.815c-.441 1.375-1.464 1.657-2.257 1.657-12.257-.018-24.495-.018-36.752 0-1.093 0-1.887-.582-2.222-1.604-3.121-9.641-6.26-19.265-9.381-28.906l-2.399-7.615.847-.74 31.549-22.913 32.483 23.6zM17.995 36.996a84.8 84.8 0 0115.007-15.951A84.957 84.957 0 0153.53 8.619a94.922 94.922 0 013.704-1.463c.67-.247 1.552-.159 2.169.247a6693.33 6693.33 0 0114.655 9.289l10.51 6.68c.776.493 1.164 1.198 1.164 2.132-.018 3.473-.018 6.945 0 10.435v16.127c0 .899-.353 1.604-1.076 2.133a12178.722 12178.722 0 00-30.49 22.155c-.477.335-.97.511-1.5.511a2.84 2.84 0 01-.846-.14 5959.27 5959.27 0 00-25.43-7.985c-.97-.3-1.552-.934-1.799-1.939l-6.93-27.743c-.141-.581-.141-1.427.335-2.062zM1.912 83.933c.529-14.77 4.461-28.13 12.01-40.874l1.974-3.33 5.397 21.538c.494 1.991.987 3.983 1.499 5.975.246.934-.018 1.745-.759 2.414-3.21 2.838-6.419 5.694-9.61 8.531L1.787 87.635l.124-3.702zm17.176 53.794c-3.985-5.2-7.371-10.946-10.07-17.062-3.156-7.156-5.272-14.576-6.277-22.05-.265-2.044-.459-4.106-.635-6.116l-.124-1.322c-.07-.828.388-1.568.847-1.974 2.645-2.362 5.29-4.724 7.953-7.085l3.845-3.42c2.874-2.538 5.731-5.093 8.588-7.65.776-.704 1.64-.88 2.645-.563 8.36 2.644 16.736 5.252 25.095 7.86 1.287.406 1.622 1.428 1.728 1.763 3.968 12.233 7.936 24.465 11.921 36.697.282.864.159 1.674-.37 2.432a5358.21 5358.21 0 00-14.39 20.552c-.67.951-1.358 1.251-1.958 1.251-.211 0-.405-.035-.582-.088l-22.237-1.851c-1.411-.123-2.84-.229-4.25-.37-.953-.07-1.552-.775-1.729-1.004zm39.432 28.835c-13.42-4.777-24.724-12.267-34.547-22.913l-2.733-2.961 5.15.387c.881.071 1.692.124 2.503.194l10.51.899c2.752.229 5.52.458 8.272.705.864.071 1.499.74 1.798 1.287 2.293 4.195 4.586 8.407 6.878 12.602l4.11 7.579 1.798 3.543-3.739-1.322zm49.378 2.133a85.836 85.836 0 01-27.334 2.485c-4.761-.317-9.682-1.128-14.602-2.362-.758-.194-1.305-.775-1.57-1.251-2.592-4.706-5.166-9.43-7.741-14.154l-5.485-10.011c-.564-1.022-.246-1.868.124-2.38 4.99-7.12 9.981-14.223 14.954-21.362.723-1.04 1.781-1.057 2.134-1.04h22.273c4.956 0 9.893 0 14.849-.017h.018c.952 0 1.675.387 2.222 1.163 4.92 7.05 9.84 14.1 14.778 21.133.582.811.617 1.71.141 2.591-4.356 7.949-8.694 15.916-13.032 23.865-.371.705-.935 1.146-1.729 1.34zm41.407-24.976c-9.575 10.364-20.633 17.767-33.806 22.631l-3.95 1.463 6.595-12.126c2.099-3.825 4.18-7.667 6.261-11.492.441-.828 1.146-1.269 2.116-1.339 2.469-.194 4.92-.406 7.389-.617l4.285-.37c2.205-.177 4.391-.353 6.649-.547l7.23-.582-2.769 2.979zm21.991-51.89l-.035.423c-.899 13.396-4.779 25.91-11.498 37.226-1.235 2.08-2.628 4.089-3.968 6.01-.529.758-1.058 1.516-1.57 2.274a2.447 2.447 0 01-1.763 1.022c-3.245.282-6.472.546-9.717.828l-14.954 1.252c-.424.035-.847.053-1.27.106-.141.017-.265.035-.406.035-.829 0-1.516-.388-2.045-1.146-2.734-3.913-5.467-7.826-8.218-11.738l-3.633-5.182c-1.005-1.428-2.011-2.873-3.016-4.301-.529-.74-.652-1.516-.37-2.344 3.915-12.021 7.812-24.06 11.71-36.097.264-.829.828-1.393 1.675-1.657a7303.397 7303.397 0 0025.923-8.126c.882-.282 1.693-.106 2.399.511l8.165 7.262c3.932 3.508 7.865 6.998 11.798 10.505.582.511.793 1.27.811 1.816.053.458.017.898-.018 1.321zm-13.367-51.308l1.887 3.243c7.177 12.391 10.986 25.346 11.604 39.587l.158 3.455-2.874-2.256a2.136 2.136 0 01-.282-.23l-3.492-3.101a7595.277 7595.277 0 00-12.962-11.492c-.776-.688-1.04-1.551-.793-2.556 1.463-5.816 2.909-11.65 4.355-17.467l1.411-5.552.988-3.63zm-1.922-2.503l.264.53-.088.687-2.733 10.91c-1.394 5.552-2.787 11.104-4.18 16.674-.247.951-.846 1.586-1.781 1.886a6213.756 6213.756 0 00-25.747 8.09c-.3.088-.6.14-.9.14-.546 0-1.075-.175-1.569-.546a45825.92 45825.92 0 00-30.597-22.208c-.74-.546-1.11-1.251-1.11-2.185.017-8.813.017-17.626 0-26.439 0-.987.405-1.727 1.233-2.256 8.342-5.288 16.683-10.575 25.025-15.88.299-.195 1.128-.723 2.239-.3 9.1 3.384 17.494 8.284 24.972 14.54 5.572 4.672 10.492 9.995 14.601 15.776.159.211.282.423.371.581z" fill="#FFB62C"/></svg>