<svg width="90" height="87" viewBox="0 0 90 87" fill="none" xmlns="http://www.w3.org/2000/svg"><path d="M86.218.128c-.38.058-.76.136-1.13.204-5.27 1.072-10.4 2.63-15.4 4.549-8.97 3.428-17.27 7.967-24.66 14.035-4.66 3.818-8.74 8.152-12.29 12.963-4.09 5.532-7.39 11.493-10.05 17.795-.47 1.11-.29 1.977.59 2.834l3.99 3.886c.1.098.21.185.32.293.13-.117.24-.215.34-.322 3.17-3.078 6.33-6.155 9.5-9.223.14-.137.27-.263.42-.39 1.13-.925 2.82-.643 3.58.584.57.926.38 2.056-.49 2.913l-9.61 9.36c-.11.107-.26.194-.38.272 1.49 1.47 2.91 2.844 4.29 4.247.89.906 1.88 1.042 3.03.574a95.542 95.542 0 0011.93-5.756c9.93-5.668 18.19-13.08 24.63-22.372 4.91-7.08 8.63-14.727 11.37-22.83 1.18-3.506 2.21-7.052 2.91-10.675.34-1.89-.96-3.243-2.89-2.941zm-25.01 35.336c-4.63 0-8.43-3.702-8.43-8.201.01-4.5 3.83-8.22 8.44-8.192 4.61.02 8.39 3.702 8.41 8.192.03 4.47-3.8 8.2-8.42 8.2zm-53.5 10.762c4.46-.838 8.92-1.685 13.38-2.523.34-.068.53-.194.68-.506 2.9-5.893 6.39-11.435 10.59-16.538.78-.945 1.58-1.86 2.43-2.854-.14.01-.2 0-.26.01-3.72.701-7.43 1.412-11.15 2.104-.67.126-1.27.34-1.77.818-5.34 5.191-10.7 10.382-16.04 15.574-.8.779-.95 1.821-.45 2.736.5.926 1.49 1.384 2.59 1.179zm52.4 10.412c-4.79 3.516-9.91 6.506-15.33 9.01-.27.126-.4.291-.45.564-.82 4.13-1.66 8.25-2.47 12.38-.1.516-.21 1.06-.14 1.577.13.925.72 1.559 1.67 1.822.97.272 1.76-.03 2.45-.712 5.29-5.162 10.58-10.324 15.88-15.486.45-.438.71-.935.83-1.539.54-2.766 1.1-5.532 1.66-8.308.19-.974.38-1.948.6-3.029-.23.185-.38.302-.52.42-1.4 1.11-2.76 2.249-4.18 3.3zm-38.56 12.428c.99-1.208.48-3.039-1.02-3.565-1.07-.37-1.96-.03-2.73.72-4.6 4.49-9.21 8.961-13.82 13.451-.14.137-.27.273-.39.42-.58.72-.71 1.519-.33 2.347.4.876 1.13 1.334 2.01 1.383.91.01 1.52-.36 2.06-.887 4.6-4.49 9.21-8.96 13.82-13.45.15-.137.28-.273.4-.42zm-4.01-11.795c.14-.136.27-.273.39-.419.77-.954.62-2.367-.33-3.146-1.01-.828-2.33-.74-3.35.253-4.46 4.335-8.92 8.679-13.39 13.022a2.62 2.62 0 00-.35.39c-.59.77-.66 1.597-.24 2.435.42.838 1.16 1.227 1.98 1.257.88 0 1.46-.332 1.97-.828 4.44-4.335 8.88-8.65 13.32-12.964zm15.42 11.727c-1.05-.302-1.87.039-2.61.76-4.43 4.314-8.86 8.619-13.29 12.924-.11.107-.22.234-.33.35-.63.76-.72 1.608-.3 2.465.42.857 1.17 1.256 1.97 1.285.89 0 1.47-.32 1.97-.808 4.46-4.344 8.92-8.678 13.38-13.022.14-.136.26-.273.38-.419.98-1.208.34-3.097-1.17-3.535z" fill="#FFB62C"/></svg>