<svg width="1007" height="174" viewBox="0 0 1007 174" fill="none" xmlns="http://www.w3.org/2000/svg"><g clip-path="url(#clip0_195_19)" fill="#fff"><path d="M87.28 140.422a53.784 53.784 0 01-20.094-3.908c-13.367-5.345-23.853-15.579-29.527-28.792-5.656-13.213-5.831-27.846-.456-41.182 5.357-13.336 15.615-23.798 28.859-29.46 13.244-5.642 27.91-5.818 41.277-.455 13.367 5.345 23.854 15.579 29.527 28.792 5.656 13.214 5.832 27.846.457 41.182-5.358 13.336-15.615 23.798-28.859 29.459-6.816 2.909-14 4.363-21.184 4.363zM87.263 34.47a51.98 51.98 0 00-20.499 4.224C53.942 44.16 44.035 54.273 38.836 67.188c-5.2 12.916-5.023 27.058.44 39.851 5.48 12.792 15.614 22.676 28.56 27.863 12.945 5.187 27.12 5.012 39.943-.438 12.822-5.468 22.729-15.579 27.928-28.494 5.181-12.916 5.023-27.058-.439-39.85-5.481-12.794-15.616-22.677-28.561-27.864-6.288-2.524-12.875-3.786-19.444-3.786z"/><path d="M168.413 118.026c8.466-21.625 8.22-43.425-.72-64.857h.017l-.351-.806-.351-.806h-.018c-9.327-21.258-24.96-36.504-46.477-45.336v-.017l-.808-.333-.808-.333v.017c-21.675-8.447-43.526-8.201-65.008.736v-.017l-.808.35-.808.35v.018c-21.306 9.306-36.588 24.885-45.44 46.352h-.018l-.334.806-.333.824h.017c-8.466 21.625-8.22 43.425.72 64.857h-.017l.351.806.351.806h.018c9.327 21.257 24.96 36.504 46.477 45.336v.017l.808.333.808.333v-.017c21.675 8.447 43.526 8.201 65.008-.719v.018l.808-.351.808-.35v-.018c21.306-9.305 36.588-24.902 45.44-46.369h.018l.334-.806.333-.806-.017-.018zm-31.635-11.636l-.316.736 29.685 11.882c-8.677 21.029-23.643 36.292-44.51 45.423l-12.559-29.301a26.15 26.15 0 01-1.616.683l12.542 29.284c-21.026 8.744-42.437 8.99-63.673.718l11.874-29.546c-.281-.105-.545-.193-.826-.298-.28-.105-.544-.228-.808-.35l-11.874 29.546C33.62 156.51 18.32 141.579 9.17 120.76l29.35-12.512a26.026 26.026 0 01-.684-1.613L8.5 119.148C-.264 98.171-.51 76.809 7.78 55.622l29.685 11.882c.088-.246.176-.509.281-.754.123-.298.246-.578.386-.876L8.45 53.992C17.126 32.963 32.09 17.7 52.959 8.57l12.593 29.389a26.197 26.197 0 011.616-.684L54.574 7.886C75.6-.859 97.011-1.087 118.247 7.185l-11.944 29.686c.281.105.545.193.826.298.281.105.544.228.808.35l11.944-29.686c21.078 8.657 36.377 23.588 45.528 44.407l-29.456 12.565c.246.526.474 1.069.685 1.612l29.456-12.565c8.765 20.977 9.011 42.339.72 63.526l-29.684-11.882c-.123.298-.229.596-.352.894z"/><path d="M107.287 114.486l-19.99-10.497-20.006 10.497 3.812-22.22-16.177-15.737 22.36-3.242L87.28 53.08l9.995 20.206 22.36 3.242-16.177 15.737 3.829 22.22zm-19.99-12.477l17.671 9.27-3.372-19.627 14.298-13.897L96.15 74.9l-8.852-17.857L78.463 74.9 58.72 77.756l14.297 13.897-3.372 19.627 17.653-9.27zm140.45-78.036l21.465-9.025c5.831-2.453 9.572-7.78 10.31-13.616-.456 0-.896-.018-1.352-.018-.72 5.328-4.163 10.165-9.485 12.408l-21.465 9.025c-5.322 2.243-11.189 1.314-15.51-1.893-.316.315-.632.648-.931.981 4.708 3.54 11.137 4.574 16.968 2.138z"/><path d="M221.16 25.515a17.435 17.435 0 01-10.521-3.522l-.193-.14.316-.35c.263-.281.509-.544.79-.824l.141-.14.158.105c4.409 3.26 10.275 3.978 15.299 1.857l21.464-9.025c5.024-2.12 8.607-6.8 9.345-12.232l.017-.192h.194c.351 0 .72 0 1.071.017h.527l-.035.245c-.773 6.134-4.778 11.409-10.451 13.792l-21.465 9.025c-2.125.946-4.408 1.384-6.657 1.384zM211.096 21.8c4.795 3.505 11.118 4.259 16.563 1.98l21.465-9.025c5.445-2.295 9.309-7.342 10.152-13.213h-.035c-.298 0-.579-.017-.878-.017-.826 5.502-4.479 10.234-9.591 12.39l-21.464 9.024c-5.111 2.156-11.066 1.455-15.58-1.805-.211.21-.422.439-.632.666zm46.512 33.051c.087.193.281.386.685.228l.175-.07 5.428-3.137.984 2.348a50.58 50.58 0 011.036-1.63l-.878-2.085c-.176-.403-.475-.578-.879-.42l-.158.07-6.06 3.61c-.333.227-.597.455-.386.946l.053.14zM215.487 97.61l-9.046-21.414c-2.459-5.818-7.799-9.551-13.666-10.287 0 .456-.017.894-.017 1.35 5.34.718 10.187 4.153 12.436 9.462l9.063 21.415c2.249 5.31 1.318 11.163-1.897 15.474.316.316.65.631.984.929 3.566-4.697 4.602-11.111 2.143-16.929z"/><path d="M213.379 114.872l-.369-.351c-.263-.245-.527-.49-.79-.753l-.141-.14.106-.158c3.267-4.399 3.987-10.252 1.862-15.264l-9.046-21.415c-2.126-5.011-6.816-8.586-12.261-9.322l-.193-.018v-.193c0-.368 0-.753.018-1.121v-.49l.246.034c6.147.771 11.434 4.767 13.841 10.427l9.046 21.415c2.389 5.66 1.563 12.232-2.178 17.156l-.141.193zm-.72-1.279c.211.21.421.403.65.613l.017.017c3.513-4.784 4.269-11.092 1.985-16.525l-9.046-21.415c-2.301-5.432-7.359-9.288-13.244-10.129 0 .298-.017.614-.017.912 5.515.806 10.258 4.468 12.418 9.568l9.046 21.397a16.048 16.048 0 01-1.809 15.562zm41.453-31.632l-9.257-21.923-5.427 3.137-.176.07c-.404.175-.597-.017-.685-.228l-.07-.175c-.211-.49.053-.718.386-.946l6.06-3.61.158-.07c.404-.175.721.017.879.42l8.87 20.977-.738 2.348z"/><path d="M253.849 98.54l-.966-.053c-7.799-.403-14.527-5.117-17.548-12.267l-6.833-16.158c-4.32-10.234.51-22.045 10.75-26.374l16.195-6.817a20.185 20.185 0 0120.534 2.91l.755.613-.685.683c-8.449 8.447-14.649 18.488-18.426 29.844a75.904 75.904 0 00-3.829 26.62l.053.998zm9.45-61.476a18.18 18.18 0 00-7.149 1.454l-16.195 6.817c-9.362 3.943-13.753 14.738-9.819 24.079l6.833 16.157c2.635 6.239 8.343 10.427 15.071 11.11-.211-8.902 1.124-17.734 3.934-26.25 3.741-11.304 9.854-21.345 18.145-29.827a18.207 18.207 0 00-10.82-3.54zm129.014 57.637l-5.972 26.62c-1.616 7.237.931 14.422 6.043 19.119.316-.421.632-.859.93-1.279-4.619-4.329-6.903-10.883-5.427-17.49l5.972-26.62c1.475-6.606 6.358-11.565 12.383-13.51-.088-.526-.193-1.034-.298-1.56-6.64 2.068-12.015 7.5-13.631 14.72z"/><path d="M268.076 94.947l5.972-26.62c1.616-7.237-.931-14.422-6.042-19.119-.316.42-.632.859-.931 1.28 4.62 4.328 6.903 10.882 5.428 17.489l-5.972 26.62c-1.476 6.606-6.359 11.565-12.384 13.51.088.526.194 1.034.299 1.56 6.622-2.068 12.014-7.483 13.63-14.72zm61.987-62.089l26.681 5.958c7.255 1.613 14.456-.928 19.164-6.028a64.54 64.54 0 00-1.283-.929c-4.338 4.61-10.907 6.887-17.529 5.415l-26.682-5.958c-6.622-1.472-11.593-6.344-13.542-12.355-.527.088-1.037.193-1.563.298 2.072 6.607 7.517 11.987 14.754 13.6zm.246 123.932l-26.681-5.958c-7.255-1.612-14.456.929-19.164 6.028.422.316.861.631 1.283.929 4.338-4.609 10.908-6.887 17.53-5.415l26.681 5.958c6.622 1.472 11.593 6.344 13.542 12.355.527-.088 1.037-.193 1.564-.298-2.073-6.607-7.501-11.969-14.755-13.599z"/><path d="M330.133 172.72a77.646 77.646 0 01-24.45-3.943c-19.796-6.537-35.85-20.364-45.23-38.957-9.362-18.593-10.925-39.692-4.374-59.442 13.525-40.78 57.772-62.965 98.628-49.489 40.873 13.494 63.111 57.62 49.603 98.399-10.837 32.683-41.418 53.432-74.177 53.432zm.106-154.022c-32.021 0-61.917 20.276-72.508 52.223-6.394 19.312-4.883 39.938 4.268 58.111 9.151 18.172 24.854 31.683 44.211 38.08 39.943 13.178 83.187-8.517 96.414-48.367 13.209-39.85-8.537-82.995-48.479-96.191a75.714 75.714 0 00-23.906-3.855z"/><path d="M338.951 130.819c-1.634 0-3.285-.175-4.918-.543l-22.448-5.012c-12.015-2.681-19.62-14.615-16.933-26.62l5.024-22.396c1.3-5.818 4.795-10.76 9.836-13.95 5.041-3.189 11.013-4.222 16.845-2.926l22.448 5.012c12.014 2.681 19.62 14.616 16.933 26.62l-5.024 22.396c-1.3 5.818-4.795 10.76-9.836 13.949a22.223 22.223 0 01-11.927 3.47zm-17.512-70.237a20.438 20.438 0 00-10.996 3.206c-4.637 2.945-7.852 7.5-9.063 12.863l-5.024 22.396c-2.477 11.058 4.514 22.046 15.598 24.517l22.448 5.012c5.357 1.192 10.872.245 15.527-2.699 4.637-2.944 7.852-7.5 9.064-12.863l5.023-22.396c2.477-11.058-4.514-22.045-15.598-24.516L325.97 61.09a19.959 19.959 0 00-4.531-.509z"/><path d="M342.85 84.064l-19.532 25.007c-.123.193-.58.298-.843.246l-.615-.141c-.421-.087-.562-.438-.492-.753a1.47 1.47 0 01.229-.473l19.216-24.341c.053-.07.07-.158.105-.246.035-.157 0-.35-.263-.403l-15.51-3.452c-.457-.105-.773-.438-.685-.841l.07-.333c.088-.42.545-.701 1.001-.596l16.424 3.662c.948.21 1.493.947 1.299 1.805-.052.28-.158.561-.404.86z"/><path d="M330.344 172.737a78.57 78.57 0 01-17.178-1.91c-41.998-9.375-68.539-51.083-59.159-93.001 4.549-20.294 16.757-37.625 34.357-48.77 17.6-11.146 38.502-14.791 58.86-10.252 20.34 4.538 37.712 16.718 48.883 34.277 11.172 17.56 14.825 38.413 10.276 58.724-4.549 20.293-16.757 37.625-34.357 48.77-12.682 8.026-27.05 12.162-41.682 12.162zm-.298-154.074c-14.316 0-28.35 4.049-40.734 11.882-17.213 10.9-29.14 27.828-33.584 47.666-9.186 40.972 16.757 81.751 57.824 90.899 19.884 4.433 40.329.876 57.525-10.024 17.214-10.9 29.141-27.829 33.584-47.666 4.444-19.838.879-40.236-10.029-57.392-10.926-17.174-27.893-29.073-47.777-33.507a77.438 77.438 0 00-16.809-1.858z"/><path d="M258.521 133.378c-26.611 0-50.938-15.93-61.389-40.64-14.281-33.769 1.651-72.83 35.498-87.078 25.329-10.654 55.119-4.486 74.089 15.37l.966.998-1.317.438c-22.993 7.483-41.243 25.603-48.831 48.472l-.825-.28.825.28c-6.692 20.188-4.566 42.427 5.832 61.02l.685 1.209-1.388.088a82.53 82.53 0 01-4.145.123zm-.158-131.135a64.557 64.557 0 00-25.03 5.03c-15.967 6.711-28.35 19.241-34.884 35.241-6.534 16-6.411 33.594.316 49.524 10.504 24.867 35.446 40.621 62.408 39.517-10.047-18.769-11.979-40.972-5.287-61.195 7.606-22.957 25.715-41.235 48.62-49.138-12.366-12.355-29.14-18.979-46.143-18.979z"/></g><g clip-path="url(#clip1_195_19)" fill="#FFB62C"><path d="M905.045.088A91.452 91.452 0 00901.253 0c-21.902 0-42.641 8.09-58.777 23.019-16.93 15.67-26.788 36.926-27.74 59.874-.97 23.231 7.16 45.404 22.89 62.413 15.819 17.114 37.298 27.02 60.488 27.883 23.525.846 45.94-7.649 63.063-23.988 17.106-16.339 26.629-38.389 26.823-62.095.37-46.814-36.064-85.044-82.955-87.018zm-26.294 4.847c14.955-4.054 30.156-4.054 45.146 0l2.945.793-2.328 1.957c-.282.247-.406.352-.547.44l-5.043 3.208c-5.432 3.455-10.881 6.927-16.313 10.382-.317.211-.74.387-1.252.387-.388 0-.829-.105-1.287-.405a5350.318 5350.318 0 00-16.736-10.646l-4.532-2.873a13.399 13.399 0 00-.406-.282l-2.786-2.08 3.139-.88zm55.057 73.658l-6.402 19.705c-1.834 5.605-3.65 11.21-5.467 16.815-.441 1.375-1.463 1.657-2.257 1.657-12.256-.018-24.495-.018-36.751 0-1.094 0-1.887-.582-2.222-1.604-3.122-9.641-6.261-19.265-9.382-28.906l-2.399-7.615.847-.74 31.549-22.913 32.484 23.6zM832.653 36.996A84.797 84.797 0 01868.188 8.62a95.344 95.344 0 013.703-1.463c.67-.247 1.552-.159 2.169.247a6253.27 6253.27 0 0114.655 9.289l10.51 6.68c.776.493 1.164 1.198 1.164 2.132-.017 3.473-.017 6.945 0 10.435v16.127c0 .899-.352 1.604-1.075 2.133a11944.02 11944.02 0 00-30.491 22.155c-.477.335-.97.511-1.499.511-.283 0-.565-.053-.847-.14a5959.27 5959.27 0 00-25.43-7.985c-.97-.3-1.551-.934-1.798-1.939l-6.931-27.743c-.141-.581-.141-1.427.335-2.062zM816.57 83.933c.529-14.77 4.462-28.13 12.009-40.874l1.976-3.33 5.396 21.538c.494 1.991.987 3.983 1.499 5.975.247.934-.018 1.745-.758 2.414-3.21 2.838-6.42 5.694-9.612 8.531l-10.633 9.448.123-3.702zm17.177 53.793c-3.986-5.199-7.372-10.945-10.07-17.061-3.157-7.156-5.273-14.576-6.278-22.05-.265-2.044-.459-4.106-.635-6.116l-.123-1.322c-.071-.828.388-1.568.846-1.974 2.645-2.362 5.291-4.724 7.953-7.085l3.845-3.42c2.874-2.538 5.731-5.093 8.588-7.65.776-.704 1.64-.88 2.645-.563 8.359 2.644 16.736 5.252 25.095 7.86 1.287.406 1.622 1.428 1.728 1.763 3.968 12.233 7.936 24.465 11.922 36.697.282.864.158 1.674-.371 2.432a5380.695 5380.695 0 00-14.39 20.552c-.67.951-1.358 1.251-1.957 1.251-.212 0-.406-.035-.582-.088l-22.238-1.851c-1.411-.123-2.839-.229-4.25-.37-.953-.07-1.552-.775-1.728-1.005zm39.431 28.836c-13.42-4.777-24.724-12.267-34.547-22.913l-2.733-2.961 5.149.387c.882.071 1.693.124 2.505.194l10.51.899c2.751.229 5.52.458 8.271.705.864.071 1.499.74 1.799 1.287 2.292 4.195 4.585 8.407 6.877 12.602l4.109 7.579 1.799 3.543-3.739-1.322zm49.378 2.133a85.832 85.832 0 01-27.334 2.485c-4.761-.317-9.681-1.128-14.602-2.362-.758-.194-1.305-.775-1.569-1.251-2.592-4.706-5.167-9.43-7.742-14.154l-5.484-10.011c-.565-1.022-.247-1.868.123-2.38 4.991-7.12 9.981-14.223 14.955-21.362.723-1.04 1.781-1.057 2.133-1.04h22.273c4.956 0 9.894 0 14.849-.017h.018c.952 0 1.675.387 2.222 1.163 4.92 7.05 9.84 14.1 14.778 21.133.582.811.617 1.71.141 2.591-4.356 7.949-8.694 15.916-13.032 23.865-.371.705-.935 1.146-1.729 1.34zm41.408-24.976c-9.576 10.364-20.633 17.767-33.807 22.631l-3.95 1.463 6.595-12.126c2.099-3.825 4.18-7.667 6.261-11.492.441-.828 1.146-1.269 2.116-1.339 2.469-.194 4.92-.406 7.389-.617l4.285-.37c2.205-.177 4.392-.353 6.649-.547l7.23-.582-2.768 2.979zm21.99-51.89l-.035.423c-.899 13.396-4.779 25.91-11.498 37.226-1.234 2.08-2.628 4.089-3.968 6.01-.529.758-1.058 1.516-1.569 2.274a2.45 2.45 0 01-1.764 1.022c-3.245.282-6.472.546-9.717.828l-14.954 1.252c-.423.035-.847.053-1.27.106-.141.017-.264.035-.406.035-.828 0-1.516-.388-2.045-1.146-2.734-3.913-5.467-7.826-8.218-11.738l-3.633-5.182c-1.005-1.428-2.01-2.873-3.016-4.301-.529-.74-.652-1.516-.37-2.344 3.915-12.021 7.812-24.06 11.71-36.097.264-.829.829-1.393 1.675-1.657a7369.317 7369.317 0 0025.924-8.126c.881-.282 1.693-.105 2.398.511l8.165 7.262c3.933 3.508 7.865 6.998 11.798 10.505.582.511.793 1.27.811 1.816.053.458.018.898-.018 1.321zm-13.367-51.308l1.887 3.243c7.177 12.391 10.987 25.346 11.604 39.587l.159 3.455-2.875-2.256a2.205 2.205 0 01-.282-.23l-3.492-3.101c-4.32-3.843-8.641-7.667-12.962-11.492-.776-.688-1.04-1.551-.793-2.556 1.464-5.816 2.91-11.65 4.356-17.467l1.41-5.552.988-3.63zm-1.922-2.503l.264.53-.088.687-2.733 10.91c-1.393 5.552-2.787 11.104-4.18 16.674-.247.951-.846 1.586-1.781 1.886a6261.797 6261.797 0 00-25.747 8.09c-.3.088-.6.14-.899.14-.547 0-1.076-.175-1.57-.546a45062.443 45062.443 0 00-30.597-22.208c-.74-.546-1.111-1.251-1.111-2.185.018-8.813.018-17.626 0-26.439 0-.987.406-1.727 1.235-2.256 8.341-5.288 16.682-10.575 25.024-15.88.3-.195 1.128-.723 2.24-.3 9.099 3.384 17.493 8.284 24.971 14.54 5.572 4.672 10.493 9.995 14.601 15.776.159.211.283.423.371.581zM515.717 148.672c-34.23 0-62.076-27.831-62.076-62.042s27.846-62.042 62.076-62.042c34.229 0 62.075 27.83 62.075 62.042 0 34.211-27.846 62.042-62.075 62.042zm0-122.322c-33.26 0-60.312 27.038-60.312 60.28 0 33.242 27.052 60.279 60.312 60.279 33.259 0 60.311-27.037 60.311-60.28 0-33.241-27.052-60.279-60.311-60.279z"/><path d="M515.769 141.287h-.052a56.02 56.02 0 01-10.599-1.022l.335-1.728c3.368.652 6.807.987 10.264.987l.052 1.763zm10.67-1.058l-.335-1.727a53.263 53.263 0 009.928-3.014l.67 1.622a53.87 53.87 0 01-10.263 3.119zm-31.585-3.067a55.274 55.274 0 01-9.452-5.04l.97-1.463a53.047 53.047 0 009.152 4.882l-.67 1.621zm51.283-5.111l-.988-1.463a53.07 53.07 0 008.007-6.592l1.252 1.252a53.548 53.548 0 01-8.271 6.803zm-69.023-6.715a53.598 53.598 0 01-6.808-8.267l1.464-.987a52.996 52.996 0 006.596 8.002l-1.252 1.252zm84.101-8.355l-1.464-.987a52.864 52.864 0 004.885-9.13l1.623.67a55.248 55.248 0 01-5.044 9.447zm-95.987-9.341a53.21 53.21 0 01-3.122-10.24l1.728-.353a50.963 50.963 0 003.034 9.905l-1.64.688zm104.134-10.364l-1.728-.335a52.962 52.962 0 001.005-10.311v-.23h1.764v.212a55.05 55.05 0 01-1.041 10.664zM461.03 86.736v-.106c0-3.543.335-7.086 1.023-10.54l1.728.335a53.284 53.284 0 00-.987 10.205l-1.764.106zM567.599 76.09a52.777 52.777 0 00-3.051-9.906l1.622-.687a55.901 55.901 0 013.157 10.24l-1.728.353zM466.762 66.5l-1.623-.67a53.39 53.39 0 015.044-9.447l1.464.97a52.879 52.879 0 00-4.885 9.147zm92.848-9.43a54.133 54.133 0 00-6.613-7.984l1.234-1.251a54.529 54.529 0 016.825 8.249l-1.446.987zm-81.403-7.755l-1.252-1.251a55.459 55.459 0 018.253-6.821l.988 1.48a52.946 52.946 0 00-7.989 6.592zm66.766-6.785a53.58 53.58 0 00-9.153-4.865l.671-1.622a55.393 55.393 0 019.47 5.024l-.988 1.463zm-49.643-4.724l-.687-1.622a54.591 54.591 0 0110.246-3.137l.352 1.727a51.128 51.128 0 00-9.911 3.032zm30.544-3.102a52.763 52.763 0 00-10.157-.97l-.177-1.762h.177c3.509 0 7.054.335 10.475 1.005l-.318 1.727zm-10.157 71.772c-10.952 0-19.875-8.9-19.875-19.864 0-10.945 8.906-19.846 19.875-19.846s19.874 8.9 19.874 19.846c0 10.963-8.923 19.864-19.874 19.864zm0-37.948c-9.982 0-18.112 8.108-18.112 18.084 0 9.976 8.113 18.102 18.112 18.102 9.999 0 18.111-8.126 18.111-18.102s-8.13-18.084-18.111-18.084zm16.259-48.047a6.355 6.355 0 01-6.349-6.345c0-3.508 2.857-6.345 6.349-6.345s6.349 2.855 6.349 6.345a6.344 6.344 0 01-6.349 6.345zm0-10.946a4.586 4.586 0 00-4.585 4.583 4.586 4.586 0 004.585 4.583 4.597 4.597 0 004.585-4.583 4.586 4.586 0 00-4.585-4.583z"/><path d="M515.717 174c-48.197 0-87.417-39.199-87.417-87.37 0-48.17 39.22-87.37 87.417-87.37 48.196 0 87.416 39.2 87.416 87.37 0 48.171-39.202 87.37-87.416 87.37zm0-172.978c-47.227 0-85.654 38.407-85.654 85.608 0 47.201 38.427 85.607 85.654 85.607 47.226 0 85.653-38.406 85.653-85.607S562.943 1.022 515.717 1.022z"/><path d="M553.967 85.749H534.71v1.762h19.257V85.75zm-57.226 0h-19.257v1.762h19.257V85.75zM516.598 48.4h-1.763v19.247h1.763V48.4zm0 57.195h-1.763v19.247h1.763v-19.247z"/><path d="M600.911 67.84h.018l-.194-.863-.194-.863h-.018c-3.068-12.744-8.323-23.53-16.488-33.771l.017-.018-.546-.687-.547-.688-.018.018c-8.341-10.1-17.793-17.502-29.627-23.142l.018-.018-.829-.37-.793-.37v.017c-11.869-5.41-22.22-7.72-35.253-7.808V-.74h-1.763v.017c-13.103.124-24.795 2.82-36.646 8.46l-.017-.017-.794.388-.794.388.018.017c-11.727 5.852-21.056 13.396-29.221 23.654l-.018-.018-.547.688-.546.687.017.017c-7.971 10.4-13.049 21.275-15.889 34.07h-.017l-.177.864-.176.864h.018c-2.61 12.761-2.522 23.372.317 36.097h-.018l.194.864.194.864h.018c3.068 12.743 8.324 23.53 16.489 33.77l-.018.018.547.687.546.688.018-.018c8.341 10.1 17.794 17.502 29.627 23.143l-.018.017.794.37.793.37v-.017c11.851 5.411 22.221 7.72 35.253 7.808v.018h1.763V174c13.103-.123 24.813-2.82 36.646-8.46l.018.017.793-.387.794-.388-.018-.018c11.727-5.852 21.056-13.395 29.221-23.653l.018.017.547-.687.546-.688-.017-.017c7.971-10.399 13.05-21.274 15.889-34.071h.017l.177-.863.176-.864h-.017c2.645-12.778 2.557-23.389-.283-36.097zm-1.393 35.728l-23.772-5.058c-.106.581-.247 1.145-.37 1.727l23.789 5.058c-2.786 12.532-7.741 23.16-15.554 33.348l-19.186-14.982c-.353.476-.724.934-1.094 1.393l19.187 14.981c-7.989 10.047-17.124 17.432-28.604 23.16l-10.704-21.926a64.39 64.39 0 01-1.588.776l10.705 21.926c-11.586 5.517-23.031 8.161-35.87 8.284v-24.5c-.247 0-.476.018-.723.018-.352 0-.688-.018-1.04-.035v24.482c-12.768-.106-22.908-2.344-34.512-7.65l10.369-22.226c-.529-.246-1.075-.476-1.604-.74l-10.37 22.226c-11.586-5.534-20.844-12.761-29.009-22.649l14.707-11.897 4.409-3.561c-.37-.458-.741-.916-1.093-1.374l-4.55 3.683-14.567 11.792c-7.988-10.047-13.138-20.604-16.136-33.066l13.473-3.102 10.528-2.432a29.218 29.218 0 01-.387-1.71l-24.055 5.517c-2.786-12.461-2.874-22.825-.299-35.34l24.089 5.112c.106-.582.247-1.146.37-1.727l-24.089-5.112c2.786-12.532 7.742-23.16 15.554-33.347l19.381 15.14c.353-.476.723-.934 1.093-1.392l-19.398-15.14c7.988-10.047 17.123-17.433 28.604-23.16l10.757 22.049c.529-.264 1.041-.529 1.587-.793L478.789 9.289c11.586-5.517 23.031-8.161 35.869-8.284v24.482c.353 0 .688-.036 1.041-.036.247 0 .476.018.723.018V1.022c12.768.106 22.89 2.344 34.512 7.65l-10.317 22.102c.529.247 1.076.476 1.605.723l10.299-22.085c11.586 5.534 20.844 12.761 29.009 22.649l-14.266 11.545-4.656 3.772 1.111 1.374 4.762-3.86 14.178-11.474c7.989 10.047 13.138 20.587 16.136 33.066l-13.649 3.155-10.035 2.309c.141.564.265 1.145.388 1.71l23.684-5.465c2.804 12.497 2.892 22.86.335 35.375zm69.764 70.397l-1.728-1.375c-.829-.652-1.658-1.304-2.451-1.957-8.888-7.279-16.119-14.611-22.079-22.366-4.938-6.451-8.13-12.215-10.052-18.137-1.975-6.116-2.328-11.263-1.076-16.198 2.522-9.994 12.539-17.167 22.802-16.321 5.714.458 10.599 2.784 14.531 6.874 1.729-1.851 3.545-3.244 5.52-4.266 7.178-3.701 14.302-3.63 21.197.176 8.148 4.513 12.504 13.572 11.093 23.108-1.041 6.944-3.88 13.642-8.923 21.062-5.344 7.844-12.274 15.334-21.78 23.566-1.428 1.251-2.909 2.45-4.408 3.666l-2.646 2.168zm-16.224-74.662c-8.888 0-17.265 6.362-19.451 15.052-1.164 4.6-.829 9.43 1.04 15.211 1.852 5.728 4.973 11.333 9.788 17.608 5.872 7.667 12.997 14.876 21.796 22.085.794.652 1.605 1.286 2.434 1.939l.617.475 1.552-1.269c1.482-1.216 2.945-2.397 4.374-3.631 9.399-8.125 16.224-15.51 21.479-23.23 4.903-7.191 7.654-13.642 8.641-20.322 1.305-8.796-2.698-17.15-10.193-21.31-6.348-3.507-12.909-3.56-19.539-.141-2.011 1.04-3.845 2.521-5.626 4.53l-.6.67-.864-.793c-.158-.141-.299-.265-.423-.406-3.686-3.895-8.094-5.993-13.491-6.433-.546 0-1.04-.035-1.534-.035zm130.305 74.309h-37.615l1.463-1.498c4.25-4.336 7.742-9.165 10.423-14.365-8.906 6.61-17.847 6.293-26.647-.952-6.525-5.375-8.711-15.211-5.22-23.389 3.457-8.09 11.322-13.025 19.857-12.655-1.781-4.389-2.063-8.866-.793-13.343 1.428-5.023 4.356-9.006 8.711-11.826 7.495-4.847 17.283-4.371 24.354 1.216 5.873 4.635 10.158 13.959 6.296 23.935 9.082-.299 17.582 5.517 20.421 14.383 2.822 8.795-.423 18.242-8.041 23.512-4.321 2.997-9.188 4.142-14.478 3.455-3.633-.476-6.949-1.851-9.894-4.107 1.023 2.045 2.134 3.913 3.369 5.623 1.481 2.062 3.086 4.071 4.655 6.028.688.863 1.358 1.71 2.028 2.573l1.111 1.41zm-33.471-1.762h29.838c-.299-.37-.599-.758-.899-1.128-1.569-1.974-3.192-4.001-4.691-6.099-2.063-2.855-3.791-6.081-5.29-9.87l-1.782-4.512 3.263 3.595c3.368 3.719 7.389 5.905 11.992 6.504 4.832.635 9.293-.423 13.244-3.155 6.983-4.829 9.946-13.483 7.353-21.521-2.733-8.548-11.162-14.047-20.015-13.06l-1.552.176.652-1.41c5.097-11.051-1.181-19.988-5.202-23.16-6.472-5.112-15.431-5.57-22.291-1.11-3.985 2.573-6.666 6.221-7.971 10.839-1.287 4.512-.846 9.042 1.288 13.466l.705 1.445-1.605-.193c-8.341-.987-16.189 3.63-19.539 11.474-3.192 7.473-1.199 16.445 4.726 21.327 9.011 7.42 18.235 6.909 27.405-1.534l3.033-2.784-1.623 3.789c-2.645 6.134-6.348 11.827-11.039 16.921zm14.902-90.984L723.933 40.01 764.794-.828l40.86 40.856-40.86 40.838zM726.42 40.028l38.374 38.353 38.356-38.336-38.356-38.353-38.374 38.336zm-39.432 35.304h-35.711l1.464-1.498c3.826-3.913 6.877-8.055 9.293-12.585l-.582.423c-4.197 2.873-8.799 3.719-13.684 2.485-6.014-1.498-10.405-4.353-13.456-8.724-2.645-3.79-3.633-8.108-2.91-12.797.882-5.728 3.457-11.192 8.095-17.202 6.348-8.214 14.549-15.74 25.853-23.724.917-.652 1.904-1.34 2.945-1.94.494-.299 1.393-.37 1.975.018 13.403 9.06 22.502 17.274 29.486 26.615 3.632 4.865 5.925 9.606 7.036 14.506 1.922 8.478-1.622 16.216-9.488 20.728-2.909 1.657-6.154 2.661-9.928 3.049-3.104.317-6.155-.476-9.347-2.432a23.842 23.842 0 01-1.605-1.093c.142.282.3.546.459.828.899 1.587 1.728 2.961 2.539 4.16a56.742 56.742 0 002.981 3.966c.705.863 1.463 1.692 2.222 2.555l2.363 2.662zm-31.584-1.763h27.634a60.831 60.831 0 01-2.028-2.326 58.63 58.63 0 01-3.069-4.09c-.846-1.233-1.71-2.643-2.627-4.283-.565-1.004-1.076-2.026-1.588-3.049l-2.433-4.759 3.068 2.31c.512.37.988.757 1.482 1.145 1.04.828 2.028 1.604 3.086 2.256 2.839 1.745 5.519 2.45 8.235 2.168 3.527-.352 6.543-1.287 9.223-2.82 7.266-4.16 10.423-11.016 8.659-18.807-1.058-4.653-3.262-9.182-6.736-13.836-6.86-9.183-15.819-17.273-29.063-26.209.035.035-.088.035-.123.053a38.084 38.084 0 00-2.787 1.85c-11.145 7.88-19.24 15.3-25.465 23.354-4.444 5.764-6.913 10.964-7.741 16.392-.653 4.23.229 8.108 2.61 11.528 2.803 4 6.86 6.627 12.45 8.02 4.426 1.11 8.447.387 12.274-2.24.811-.546 1.569-1.198 2.363-1.868.388-.334.776-.67 1.199-.987l2.822-2.273-1.464 3.313c-2.451 5.552-5.731 10.523-9.981 15.158z"/></g><defs><clipPath id="clip0_195_19"><path fill="#fff" d="M0 0h409v173H0z"/></clipPath><clipPath id="clip1_195_19"><path fill="#fff" transform="translate(428)" d="M0 0h560v174H0z"/></clipPath></defs></svg>