<svg width="65" height="71" viewBox="0 0 65 71" fill="none" xmlns="http://www.w3.org/2000/svg"><path d="M64.383 11.065c0-.626-.047-1.252-.134-1.87-.347-2.439-1.453-4.505-3.214-6.2C58.935.983 56.401 0 53.495 0 39.266 0 25.038-.008 10.81.016c-.885 0-1.785.119-2.654.309-2.368.523-4.295 1.806-5.803 3.69C.719 6.06 0 8.427 0 11.033c.008 16.433 0 18.943.008 35.376 0 .673.016 1.354.047 2.027.095 1.964.703 3.77 1.824 5.37 2.108 3 5.03 4.545 8.694 4.656.631.016 1.263 0 1.918 0-.284-1.909-.142-3.786 0-5.694-.718 0-1.397.016-2.068-.008a4.692 4.692 0 01-2.67-.91c-1.492-1.07-2.155-2.55-2.155-4.38.008-16.829 0-19.735 0-36.564 0-.166 0-.332.008-.499.055-1.14.45-2.162 1.208-3.01 1.058-1.195 2.408-1.725 3.988-1.725h42.724c.135 0 .269 0 .403.007 1.413.103 2.614.666 3.53 1.75.836.983 1.184 2.147 1.184 3.438-.016 16.892-.016 19.854-.016 36.73 0 .158 0 .316-.008.467-.11 2.574-2.21 4.688-4.769 4.791-.663.024-1.326 0-1.966 0 .032.958.079 1.885.095 2.803.016.92 0 1.846 0 2.796.458 0 .963-.008 1.468 0 1.493.024 2.93-.237 4.32-.808 2.068-.855 3.703-2.24 4.919-4.11 1.192-1.83 1.697-3.864 1.697-6.042v-36.43zM32.176 40.889c-8.149-.016-14.797 6.628-14.805 14.81-.008 8.172 6.625 14.832 14.781 14.832 8.133 0 14.79-6.716 14.781-14.92-.008-8.133-6.585-14.706-14.757-14.722zm7.564 12.37c-.11.364-.324.736-.584 1.006a1230.791 1230.791 0 01-7.17 7.206c-1.208 1.204-2.7 1.196-3.916-.008a657.172 657.172 0 01-3.324-3.334c-.837-.84-1.066-1.971-.624-2.985.56-1.275 2.092-1.861 3.38-1.267.323.15.623.38.876.625.553.53 1.074 1.093 1.619 1.663.134-.126.213-.198.292-.277 1.658-1.655 3.324-3.294 4.958-4.965.908-.935 2.33-1.006 3.23-.468 1.097.65 1.603 1.695 1.263 2.804zm7.02-38.694H17.782c-.269 0-.537.016-.806.048-1.966.23-2.977 2.336-2.163 4.038.552 1.149 1.524 1.608 2.755 1.608h29.01c.166 0 .332 0 .497-.016 2.338-.23 3.103-2.645 2.298-4.19-.537-1.045-1.46-1.488-2.613-1.488zm.04 13.946H17.79a7.75 7.75 0 00-.743.04c-1.982.182-3.055 2.304-2.226 4.038.529 1.11 1.46 1.6 2.668 1.6h27.983c.498 0 .995.016 1.493-.008 1.816-.079 3.04-1.663 2.653-3.556-.276-1.306-1.406-2.114-2.819-2.114z" fill="#FFB62C"/></svg>