<svg width="89" height="87" viewBox="0 0 89 87" fill="none" xmlns="http://www.w3.org/2000/svg"><path fill-rule="evenodd" clip-rule="evenodd" d="M88.816 3.633l-12.7 74.355c-.17.935-.69 1.665-1.59 2.182-.46.263-.98.39-1.54.39-.36 0-.76-.079-1.19-.244l-22.46-8.961-12 14.279c-.6.74-1.4 1.11-2.43 1.11-.43 0-.79-.068-1.09-.195a3.061 3.061 0 01-1.51-1.14 2.974 2.974 0 01-.57-1.762v-16.89l42.85-51.27-53.01 44.784-19.59-7.84c-1.22-.459-1.88-1.345-1.98-2.66-.07-1.295.46-2.24 1.59-2.854L84.106.438A3.04 3.04 0 0185.686 0c.66 0 1.26.175 1.78.536 1.1.77 1.55 1.802 1.35 3.097z" fill="#000"/></svg>